<?xml version="1.0" encoding="utf-8"?>
<!-- Generator: Adobe Illustrator 26.4.1, SVG Export Plug-In . SVG Version: 6.00 Build 0)  -->
<svg version="1.1" id="Слой_1" xmlns="http://www.w3.org/2000/svg" xmlns:xlink="http://www.w3.org/1999/xlink" x="0px" y="0px"
	 viewBox="0 0 841.89 595.28" style="enable-background:new 0 0 841.89 595.28;" xml:space="preserve">
<style type="text/css">
	.st0{fill:#DBDBDB;}
</style>
<g>
	<path class="st0" d="M690.38,221c0.25-0.24,0.5-0.49,0.75-0.73c-8.27-8.35-16.62-16.64-24.92-24.96
		c-8.47-8.49-16.96-16.97-25.45-25.44c-8.43-8.41-16.88-16.81-25.31-25.2c2.42-3.42,2.17-6.63,0.03-9.98
		c2.95-2.92,5.92-5.82,8.86-8.75c3.9-3.89,7.79-7.78,11.66-11.7c0.25-0.26,0.24-0.77,0.36-1.16c-0.14-0.05-0.28-0.1-0.41-0.15
		c-7.04,7.03-14.08,14.06-21.17,21.13c-3.29-2.17-6.56-2.24-9.88,0.02c-4.82-4.85-9.6-9.67-14.4-14.48
		c-9.02-9.03-18.02-18.08-27.09-27.07c-1.95-1.93,1.06-4.45-0.96-6.3c-0.08-0.07,0.15-0.57,0.32-0.81c0.22-0.31,0.53-0.56,0.8-0.83
		c1.68-1.68,3.38-3.34,5.02-5.06c0.33-0.35,0.45-0.9,0.67-1.35c-0.21-0.13-0.42-0.26-0.64-0.39c-2.1,2.16-4.17,4.35-6.32,6.47
		c-0.35,0.34-1.03,0.47-1.56,0.49c-1.58,0.06-3.17,0.02-4.92,0.02c-2.43-2.38-5.09-4.96-7.72-7.58c-4.77-4.75-9.52-9.53-14.31-14.27
		c-0.38-0.37-0.96-0.53-1.45-0.79c-0.11,0.2-0.23,0.39-0.34,0.59c7.18,7.16,14.34,14.34,21.57,21.45c1.1,1.08,1.78,1.96,0.98,3.56
		c-0.31,0.63-0.18,1.7,0.15,2.37c0.56,1.12,0.17,1.71-0.61,2.45c-1.95,1.86-3.83,3.8-5.73,5.71c-3.96,4-7.92,8-11.93,12.05
		c-2.29-2.22-4.54-2.2-6.9-0.43c-11.16-11.17-22.27-22.3-33.38-33.42c-12.7-12.71-25.41-25.41-38.1-38.14
		c-1.06-1.07-1.88-1.26-3.02-0.08c-3.31,3.41-6.7,6.73-10.05,10.1c-3.06,3.09-6.11,6.19-9.19,9.32c-3.31-2.28-6.47-2.44-9.55-0.23
		c-1.16-1.1-2.24-2.1-3.28-3.13c-5.35-5.33-10.72-10.66-16.03-16.03c-1.14-1.15-2.05-1.1-3.05,0.05c-0.29,0.34-0.58,0.68-0.9,1
		c-12.27,12.27-24.56,24.52-36.83,36.8c-3.92,3.93-7.81,7.9-11.68,11.83c-8.26-8.23-16.36-16.27-24.4-24.37
		c-0.45-0.45-0.64-1.35-0.64-2.04c-0.05-5.71-0.02-11.43-0.03-17.14c0-0.65-0.07-1.31-0.1-1.96c-0.21-0.03-0.43-0.06-0.64-0.08
		c-0.13,0.55-0.37,1.11-0.38,1.66c-0.03,4.81-0.02,9.63-0.02,14.44c0,0.98,0,1.95,0,3.39c-3.19-3.32-6.02-6.26-8.85-9.2
		c-0.23,0.16-0.47,0.32-0.7,0.48c0.23,0.47,0.36,1.04,0.71,1.39c2.56,2.61,5.22,5.12,7.72,7.78c0.61,0.65,1.07,1.74,1.07,2.63
		c0.07,12.97,0.05,25.93,0.05,38.9c0,0.56-0.06,1.11-0.08,1.3c-2,0.64-3.73,1.2-5.22,1.68c-6.18-6.07-12.41-12.19-18.64-18.3
		c3.05-3.22,3.05-3.22,2.26-4.28c-1.07,1.26-2.09,2.47-3.09,3.65c-3.3-3.26-6.42-6.37-9.59-9.44c-0.54-0.52-1.25-0.86-1.88-1.28
		c-0.22,0.28-0.44,0.57-0.65,0.85c3.72,3.55,7.44,7.1,10.75,10.26c-8.31,8.4-16.46,16.62-24.33,24.57
		c-8.1-8.08-16.3-16.27-24.6-24.55C264.41,77.1,275.7,65.81,287,54.52c-0.11-0.17-0.22-0.35-0.33-0.52
		c-0.58,0.38-1.25,0.66-1.73,1.14C274.03,66,263.14,76.88,252.17,87.84c-8.34-8.36-16.69-16.7-24.98-25.09
		c-0.41-0.42-0.56-1.25-0.57-1.89c-0.05-4.11-0.02-8.22-0.02-12.32c0-1.64,0-3.29,0-4.93c-0.24-0.04-0.48-0.09-0.72-0.13
		c-0.15,0.51-0.41,1.02-0.42,1.53c-0.04,3.4-0.02,6.8-0.02,10.21c0,1.82,0,3.64,0,5.46c-0.26,0.17-0.53,0.34-0.79,0.51
		c-11.52-11.59-23.04-23.18-34.57-34.77c0.14,0.69,0.47,1.29,0.93,1.76c11.06,11.09,22.15,22.15,33.18,33.27
		c0.63,0.64,1.18,1.71,1.19,2.58c0.07,13.61,0.04,27.22,0.07,40.83c0,1.09-0.21,1.58-1.44,1.98c-1.42,0.47-2.88,1.46-3.81,2.63
		c-0.9,1.12-1.64,2.79-1.55,4.16c0.13,1.97,1.07,3.89,1.58,5.56c-6.33,6.39-12.81,12.94-19.32,19.51
		c-3.99-3.97-8.03-7.99-12.07-12.02c-4.94-4.94-9.86-9.9-14.82-14.83c-0.37-0.37-0.96-0.52-1.45-0.77c-0.09,0.17-0.18,0.33-0.27,0.5
		c9.36,9.29,18.73,18.59,28.17,27.96c-0.68,0.73-1.13,1.25-1.62,1.74c-7.36,7.35-14.7,14.7-22.09,22.02
		c-0.98,0.97-1.44,1.94-1.42,3.36c0.09,5.13,0.03,10.27,0.03,15.41c0,10.01,0,20.02,0,30c-1.54,0.91-2.76,1.01-4.01-0.54
		c-1.36-1.68-3.03-3.12-4.58-4.65c-1.19-1.17-2.4-2.31-3.6-3.47c-0.18,0.17-0.37,0.35-0.55,0.52c2.73,3.61,6.47,6.35,9.3,9.82
		c-2.09,3.7-1.07,5.95,3.67,7.79c0,40.86,0,81.84,0,122.81c0.24,0.01,0.47,0.03,0.71,0.04c0.07-0.87,0.2-1.74,0.2-2.61
		c0.01-39.61,0.02-79.21-0.02-118.82c0-1.55,0.3-2.58,2.02-2.89c8.92,8.94,17.86,17.91,26.82,26.88
		c5.39,5.39,10.79,10.77,16.19,16.15c0.69,0.69,1.1,1.24,0.54,2.4c-1.04,2.14-0.06,4.74,2.12,5.61c1.23,0.49,1.26,1.18,1.26,2.17
		c-0.01,12.65-0.02,25.29,0.01,37.94c0,1.07-0.19,1.69-1.34,2.12c-1.63,0.62-2.39,2.14-2.48,3.81c-0.09,1.73,0.78,3.28,2.34,3.88
		c1.48,0.56,1.47,1.44,1.47,2.64c-0.02,30.11-0.01,60.21-0.01,90.32c0,0.64,0,1.27,0,1.78c-1.37,1.17-2.45,1.13-3.41-0.32
		c-0.38-0.57-0.97-1.01-1.47-1.51c-5.83-5.84-11.67-11.69-17.51-17.53c-3.98-3.98-7.97-7.97-11.98-11.92
		c-0.25-0.25-0.77-0.23-1.17-0.34c-0.13,0.22-0.25,0.43-0.38,0.65c11.01,10.94,22.02,21.89,33.01,32.81
		c-1.4,2.98-0.97,5.61,1.44,6.64c1.43,0.62,1.49,1.41,1.48,2.62c-0.02,13.54-0.01,27.09-0.01,40.63c0,0.61,0,1.22,0,2.18
		c-0.67-0.61-1.05-0.92-1.4-1.27c-9.29-9.3-18.57-18.6-27.86-27.89c-8.88-8.88-17.75-17.77-26.64-26.63
		c-0.44-0.43-1.06-0.69-1.59-1.02c-0.21,0.27-0.42,0.54-0.63,0.81c3.14,2.99,6.34,5.92,9.41,8.98
		c15.96,15.9,31.88,31.84,47.84,47.73c1.14,1.14,1.07,1.95-0.03,3.03c-3.08,2.99-6.11,6.04-9.14,9.09
		c-4.69,4.72-9.36,9.45-14.33,14.48c-3.07-3.24-5.95-6.29-8.83-9.33c-0.21,0.15-0.41,0.29-0.62,0.44c0.26,0.46,0.44,1.01,0.8,1.37
		c2.66,2.64,5.36,5.25,8.38,8.19c-3.61,3.5-6.94,6.73-10.27,9.97c0.08,0.14,0.16,0.28,0.24,0.42c0.48-0.27,1.04-0.46,1.41-0.83
		c2.96-2.98,5.89-6,8.85-9.02c0.59,0.55,0.92,0.85,1.24,1.16c7.17,7.17,14.3,14.38,21.54,21.47c1.21,1.19,1.7,2.32,1.67,3.98
		c-0.09,6.1-0.04,12.2-0.03,18.29c0,0.65,0.07,1.3,0.11,1.96c0.34,0.01,0.69,0.02,1.03,0.03c0.01-3.42,0-6.84,0-10.26
		c0-3.56,0-7.12,0-10.63c8.24,8.23,16.38,16.36,24.86,24.83c-2.43,2.3-4.95,4.68-7.5,7.09c0.3,0.24,0.56,0.48,0.58,0.45
		c2.58-2.36,5.15-4.73,7.8-7.19c1.43,1.46,2.91,2.97,4.4,4.47c3.78,3.81,3.78,3.81,5.13,3.5c-3.09-2.92-6.05-5.7-8.89-8.39
		c17.01-17.01,33.69-33.69,50.89-50.89c1,1.23,1.99,2.66,3.19,3.87c6.81,6.86,13.68,13.66,20.49,20.52c0.4,0.4,0.67,1.09,0.69,1.66
		c0.09,2.18,0.07,4.36,0.07,6.54c0,10.59-0.02,21.18,0,31.77c0,0.53,0.28,1.05,0.42,1.58c0.22-0.04,0.45-0.09,0.67-0.13
		c0-13.03,0-26.07,0-39.69c2.81,2.85,5.25,5.24,7.6,7.72c5.1,5.39,6.6,6.71,7.67,6.42c-0.2-0.27-0.34-0.55-0.55-0.76
		c-4.49-4.48-9.01-8.92-13.44-13.46c-0.67-0.69-1.23-1.84-1.24-2.77c-0.07-15.92-0.07-31.84,0-47.76c0-0.88,0.51-1.96,1.14-2.6
		c4.29-4.42,8.68-8.74,13.02-13.12c3.55-3.59,7.07-7.21,10.89-11.1c10.38,10.44,20.5,20.63,30.64,30.83c0.18-0.22,0.42-0.48,0.4-0.5
		c-10.06-10.27-20.13-20.52-30.16-30.73c16.69-16.69,33.42-33.43,50.23-50.23c7.73,7.74,15.56,15.55,23.33,23.42
		c0.45,0.45,0.58,1.37,0.58,2.07c0.04,9.5,0.02,19,0.03,28.5c0,0.71,0.09,1.43,0.14,2.14c0.23,0.02,0.46,0.04,0.69,0.06
		c0.11-0.63,0.31-1.25,0.31-1.88c0.02-8.79,0.01-17.59,0.02-26.38c0-1.43-0.1-2.61,1.44-3.79c2.63-2,4.78-4.62,7.14-6.98
		c10.97-10.97,21.93-21.93,32.9-32.9c2.87-2.87,5.75-5.72,8.63-8.58c0.17,0.06,0.34,0.13,0.51,0.19c0,16.97,0,33.95,0,50.92
		c0.24,0.03,0.47,0.05,0.71,0.08c0.09-0.72,0.27-1.44,0.27-2.16c0.02-16.31-0.01-32.61,0.06-48.92c0-0.89,0.46-1.99,1.08-2.63
		c5.23-5.38,10.53-10.68,15.83-15.99c10.27-10.29,20.54-20.56,30.77-30.8c1.83,0.43,2.39,1.39,2.39,3.26
		c-0.07,29.53-0.05,59.06-0.05,88.59c0,0.51,0.06,1.04-0.03,1.54c-0.05,0.32-0.25,0.7-0.51,0.89c-3.2,2.36-3.49,3.19-2.22,7.15
		c-8.46,8.44-17.02,16.99-25.58,25.54c0.1,0.15,0.19,0.3,0.29,0.46c0.54-0.36,1.15-0.65,1.6-1.1c7.78-7.75,15.52-15.52,23.32-23.25
		c0.47-0.46,1.35-0.75,2.02-0.71c1.22,0.07,1.12,1.12,1.12,2.04c-0.01,14.57,0.01,29.14-0.05,43.72c0,0.79-0.38,1.77-0.93,2.33
		c-6.76,6.84-13.59,13.6-20.39,20.4c-6.08,6.07-12.14,12.16-18.2,18.26c-0.31,0.31-0.44,0.79-0.65,1.19
		c0.21,0.15,0.43,0.3,0.64,0.45c13.07-13.13,26.13-26.27,39.34-39.55c0.13,0.47,0.21,0.63,0.21,0.8
		c0.01,14.19,0.02,28.37-0.04,42.56c0,0.55-0.62,1.28-1.15,1.62c-1.93,1.23-2.91,3.42-1.91,5.39c0.62,1.23,0.24,1.78-0.58,2.59
		c-7.64,7.6-15.23,15.24-22.85,22.87c-5.88,5.89-11.77,11.78-17.66,17.67c0.11,0.18,0.23,0.37,0.34,0.55
		c0.58-0.37,1.25-0.65,1.73-1.13c13.17-13.15,26.31-26.32,39.48-39.46c0.4-0.4,1.35-0.79,1.67-0.58c0.49,0.3,0.92,1.13,0.93,1.73
		c0.05,14.89,0.05,29.79,0,44.68c0,0.67-0.36,1.47-0.82,1.97c-1.47,1.61-3.08,3.09-4.58,4.67c-0.32,0.33-0.4,0.89-0.59,1.34
		c28.42-28.57,56.93-56.76,85.42-84.97c0.04-0.04-0.15-0.32-0.41-0.83c-8.8,8.8-17.5,17.5-26.49,26.49
		c-0.06-0.8-0.11-1.16-0.11-1.51c0-15.6-0.02-31.2,0.05-46.8c0-0.81,0.57-1.8,1.17-2.41c10.62-10.7,21.29-21.36,31.95-32.02
		c22.5-22.51,45-45.01,67.51-67.52c1.74-1.74,1.75-1.77-0.03-3.55c-10.25-10.26-20.5-20.52-30.76-30.77
		c-4.58-4.57-9.17-9.13-13.77-13.7c2.09-3.21,1.45-6.19-0.39-9.15c6.52-6.5,12.97-12.93,19.42-19.37c1.65-1.65,1.64-1.92,0.01-3.56
		c-7.69-7.7-15.37-15.4-23.09-23.06c-1.11-1.1-1.61-2.21-1.6-3.85c0.08-13.48,0.05-26.96,0.03-40.44c0-1.26,0.12-2.12,1.43-2.95
		c2.81-1.77,2.72-5.41-0.13-7.11c-1.2-0.72-1.3-1.53-1.3-2.66c0.01-14.38,0-28.76,0-43.13c0-0.53,0.07-1.06,0.14-2.05
		C653.93,184.54,672.15,202.77,690.38,221z M225.29,520.55c-7.8-7.8-15.5-15.5-23.18-23.19c7.62-7.63,15.3-15.33,23.18-23.22
		C225.29,489.74,225.29,505.11,225.29,520.55z M220.85,120.73c1.43-1.42,2.51,0.55,3.84,0.41c0.2-0.02,0.72,0.83,0.72,1.28
		c0.04,12.88,0.03,25.75,0.03,39.01c-0.74-0.09-1.62,0.07-1.99-0.29c-7.2-7.1-14.33-14.26-21.58-21.51
		C208.24,133.29,214.55,127.01,220.85,120.73z M177.43,212.92c-0.3-0.74-0.86-1.47-0.86-2.21c-0.05-14.76-0.05-29.52-0.01-44.27
		c0-0.73,0.32-1.66,0.83-2.17c7.8-7.89,15.66-15.73,23.42-23.51c7.22,7.29,14.4,14.54,21.8,22c-1.27,1.65-1.36,3.66,0.26,5.95
		c-2.6,2.5-5.22,4.95-7.76,7.49c-11.9,11.87-23.77,23.77-35.69,35.63C178.9,212.33,178.1,212.56,177.43,212.92z M224.41,263.18
		c-1.34,0.49-1.7-0.41-2.33-1.04c-13.91-13.9-27.81-27.82-41.73-41.71c-0.84-0.84-1.42-1.52-0.82-2.8c0.27-0.57,0.29-1.58-0.04-2.05
		c-1.1-1.51-0.08-2.22,0.83-3.13c14.03-14,28.04-28.01,42.05-42.02c0.62-0.62,1.26-1.55,2.2-0.73c0.49,0.43,0.84,1.31,0.84,1.99
		c0.05,14.89,0.04,29.78,0.04,44.67c0,14.83,0.01,29.65-0.01,44.48C225.43,261.72,225.8,262.67,224.41,263.18z M328.21,167.08
		c0.02,0.31,0.08,0.71,0.08,1.12c0,14.1,0.01,28.2-0.03,42.3c0,0.69-0.37,1.81-0.81,1.95c-0.66,0.2-1.78-0.04-2.28-0.52
		c-6.81-6.68-13.54-13.44-20.28-20.18c-0.26-0.26-0.43-0.6-0.55-0.78C312.33,182.96,320.24,175.05,328.21,167.08z M324.55,372.53
		c0.12,0.3-0.21,0.94-0.51,1.24c-6.8,6.88-13.63,13.73-20.43,20.56c-8.3-8.31-16.51-16.52-24.58-24.6
		c8.06-8.06,16.21-16.2,24.47-24.45c7.2,7.21,14.56,14.58,22,22.04C324.38,368.82,323.71,370.51,324.55,372.53z M302.13,395.37
		c-6.37,6.33-12.98,12.91-19.64,19.53c-0.9-0.47-1.99-0.97-2.99-1.61c-0.39-0.25-0.82-0.83-0.82-1.26
		c-0.02-13.22,0-26.44,0.03-39.66c0-0.17,0.1-0.34,0.12-0.4C286.61,379.77,294.39,387.59,302.13,395.37z M304.6,344.71
		c-0.13-0.13-0.18-0.33-0.42-0.76c3.28-3.26,6.5-6.46,9.72-9.67c2.77-2.76,5.56-5.5,8.28-8.32c0.75-0.77,1.3-0.88,2.29-0.43
		c1.12,0.51,2.39,0.68,3.73,1.04c0,13.06,0,26.25,0,39.95c-0.86-0.23-1.87-0.19-2.36-0.67C318.72,358.84,311.67,351.77,304.6,344.71
		z M322.2,324.13c-6.31,6.3-12.61,12.6-18.83,18.81c-6.73-6.76-13.58-13.63-20.5-20.57c0.42-0.96,1.19-2.16,1.44-3.47
		c0.26-1.32,0.38-2.89-0.11-4.07c-0.58-1.37-0.06-2.02,0.72-2.79c5.53-5.5,11.06-11,16.6-16.49c0.54-0.54,1.11-1.04,1.53-1.43
		c6.36,6.35,12.78,12.77,19.31,19.29C319.41,317.49,319.35,320.05,322.2,324.13z M283.42,160.68c6.67-6.59,13.34-13.18,19.87-19.62
		c7.99,7.99,16.17,16.17,24.4,24.4c-8.06,8.06-16.22,16.22-24.71,24.72c-2.85-2.96-5.69-5.97-8.6-8.93
		c-3.37-3.43-6.77-6.84-10.2-10.21c-0.82-0.81-1.16-1.37-0.48-2.57C285.21,165.77,285.04,164.14,283.42,160.68z M324.62,218.73
		c0.21,0.46-0.36,1.51-0.85,2.02c-6.69,6.81-13.44,13.57-20.1,20.27c-8.31-8.3-16.52-16.51-24.57-24.56
		c8.02-8.02,16.16-16.15,24.21-24.2c6.99,7.04,14.28,14.38,21.69,21.84C324.24,215.28,323.76,216.86,324.62,218.73z M302.03,241.94
		c-7.6,7.6-15.41,15.41-23.25,23.25c0-15.48,0-31.06,0-46.64C286.63,226.44,294.41,234.27,302.03,241.94z M302.18,190.66
		c-7.84,7.88-15.56,15.63-23.51,23.61c0-0.83,0-1.49,0-2.16c-0.01-12.5,0.02-25-0.07-37.5c-0.01-1.61,0.19-2.68,1.91-3.09
		c0.58-0.14,1.09-0.59,1.61-0.89C288.91,177.41,295.65,184.14,302.18,190.66z M278.63,306.76c0.05-12.32,0.03-24.63,0.03-36.42
		c7.54,7.55,15.33,15.34,23.13,23.14c-5.91,5.96-12.3,12.41-18.69,18.85c-0.75-0.55-1.4-1.36-2.2-1.54
		C278.52,310.26,278.63,308.62,278.63,306.76z M279,267.59c8.11-8.16,16.27-16.38,24.68-24.84c4.68,4.76,9.39,9.56,14.11,14.35
		c1.98,2.01,4.01,3.98,5.98,5.99c0.71,0.73,1.21,1.39,0.74,2.66c-0.36,1,0.12,2.3,0.17,3.47c0.03,0.59,0.17,1.43-0.15,1.75
		c-6.84,6.92-13.74,13.78-20.63,20.64c-0.17,0.17-0.4,0.28-0.55,0.39C295.15,283.77,287,275.61,279,267.59z M324.12,262
		c-6.54-6.68-13.22-13.23-20.41-20.37c2.09-1.85,4.17-3.54,6.07-5.41c5.03-4.94,10.06-9.89,14.94-14.97
		c1.43-1.49,2.33-0.25,3.51-0.03c0,13.81,0,27.47,0,41.16C326.74,263.66,325.59,263.49,324.12,262z M325.79,120.05
		c0.67,0.27,1.5,0.16,2.4,0.24c0,14.42,0,28.81,0,43.09c-7.89-7.93-15.82-15.9-23.8-23.92c6.05-6.06,12.27-12.24,18.42-18.49
		C323.72,120.04,324.46,119.51,325.79,120.05z M303.45,89.7c6.04,6.08,12.11,12.21,18.21,18.36c-2.19,5.33-1.9,7.66,1.41,10.89
		c-6.56,6.59-13.13,13.18-19.61,19.7c-8.21-8.2-16.39-16.38-24.48-24.47C287.01,106.16,295.22,97.94,303.45,89.7z M277.89,115.51
		c7.95,7.96,16.09,16.11,24.24,24.27c-6.46,6.34-13.13,12.89-19.92,19.55c-2.92-2.36-6.34-2.44-9.74-0.18
		c-6.47-6.49-12.84-12.88-19.17-19.22C261.51,131.78,269.75,123.6,277.89,115.51z M271.97,170.21c-6.57,6.6-13.1,13.15-19.74,19.81
		c-2.69-2.68-5.34-5.32-7.98-7.96c-4.48-4.49-8.97-8.97-13.43-13.48c-0.36-0.37-0.69-0.92-0.75-1.41c-0.14-1.22-0.16-2.45-0.14-3.68
		c0.01-0.37,0.21-0.82,0.47-1.08c7.21-7.28,14.44-14.54,21.8-21.94c6.57,6.62,12.93,13.03,19.4,19.55
		C269.15,163.39,269.19,166.84,271.97,170.21z M276.45,114.17c-15.75,15.72-31.71,31.64-47.89,47.79c-0.36-0.17-1.09-0.51-1.89-0.87
		c0-13.19,0-26.39,0-39.17c1.89-1.25,3.84-2.09,5.13-3.52c1.96-2.18,2.17-4.89,0.99-7.68c-0.24-0.56-0.23-1.6,0.12-1.97
		c6.32-6.46,12.71-12.85,18.96-19.13C260.2,97.93,268.39,106.11,276.45,114.17z M226.59,84.94c0-6.29,0-12.57,0.01-18.86
		c0-0.61,0-1.23,0-1.79c8.2,8.2,16.33,16.33,24.41,24.42c-6.47,6.45-13.09,13.04-19.65,19.59c-1.24-0.52-2.57-0.96-3.76-1.65
		c-0.49-0.29-0.95-1.1-0.96-1.68C226.57,98.29,226.59,91.61,226.59,84.94z M229.15,168.92c7.34,7.3,14.68,14.61,22.15,22.05
		c-8.18,8.13-16.29,16.19-24.59,24.43c-0.06-0.73-0.14-1.32-0.14-1.91c0-13.46,0.07-26.93-0.03-40.39
		C226.54,170.88,226.77,169.23,229.15,168.92z M226.57,219.12c0-1.41,0.28-2.38,1.47-3.5c5.08-4.76,9.94-9.78,14.86-14.7
		c3.02-3.02,6.03-6.06,9.15-9.2c8.25,8.35,16.35,16.53,24.3,24.57c-15.61,15.59-31.45,31.42-47.53,47.48
		c-1.6-0.27-2.31-1.41-2.29-3.67C226.65,246.44,226.6,232.78,226.57,219.12z M226.57,274.08c-0.01-1.73-0.06-3.27,2.31-3.34
		c7.43,7.42,14.88,14.87,22.23,22.21c-7.15,7.12-14.31,14.25-21.8,21.7c0,0.01-0.06-0.6-0.26-0.65c-2.77-0.7-2.48-2.81-2.47-4.93
		C226.62,297.41,226.62,285.75,226.57,274.08z M230.4,266.88c-0.9-1.76,0.24-2.66,1.3-3.72c6.82-6.79,13.61-13.61,20.34-20.35
		c8.29,8.29,16.54,16.53,24.66,24.66c-8.11,8.1-16.3,16.29-24.9,24.87c-2.37-2.51-4.77-5.15-7.28-7.69
		c-4.54-4.61-9.11-9.18-13.73-13.71c-0.83-0.81-1.17-1.52-0.67-2.61C230.34,267.89,230.58,267.23,230.4,266.88z M277.69,324.9
		c0,14.46,0,28.92,0,43.39c-16.1-16.12-32.13-32.17-47.96-48.03c0.16-1.34,0.3-2.73,0.52-4.1c0.05-0.34,0.32-0.69,0.57-0.95
		c7.07-7.06,14.15-14.12,21.24-21.17c0.04-0.04,0.11-0.05,0.29-0.12c6.23,6.27,12.5,12.57,18.87,18.97
		C267.91,318.51,270.52,323.3,277.69,324.9z M277.66,309.4c-2,0.73-3.94,1.43-6.01,2.19c-5.99-6-12.17-12.2-18.39-18.42
		c8.12-8.14,16.2-16.23,24.4-24.44C277.66,282.38,277.66,295.98,277.66,309.4z M226.63,323.05c0-0.58,0.36-1.56,0.73-1.65
		c0.58-0.15,1.5,0.11,1.94,0.54c12,11.91,23.94,23.88,35.92,35.8c3.9,3.88,7.91,7.67,11.93,11.56
		c-8.55,8.54-16.76,16.75-25.08,25.06c-4.78-4.81-9.62-9.67-14.46-14.53c-2.99-3-5.97-6.01-9-8.97c-0.52-0.51-1.22-0.81-2.01-1.32
		C226.6,354.24,226.59,338.65,226.63,323.05z M252.15,395.94c6.54,6.54,12.98,12.98,19.52,19.52c-2.62,3.47-2.39,6.93,0.23,10.23
		c-6.58,6.53-13.11,13.02-19.71,19.58c-7.42-7.42-14.82-14.84-22.13-22.15c0-1.45-0.04-2.9,0.02-4.36c0.02-0.39,0.22-0.87,0.5-1.15
		C237.75,410.38,244.94,403.17,252.15,395.94z M273.26,426.82c1.28,0.38,2.84,0.84,4.46,1.32c0,14.12,0,28.25,0,42.46
		c-8.12-8.18-16.15-16.28-24.13-24.33C259.9,440.02,266.53,433.47,273.26,426.82z M273.19,414.23c-0.39,0.13-1.06,0.07-1.32-0.19
		c-6.28-6.22-12.51-12.48-18.57-18.54c8.18-8.18,16.27-16.27,24.42-24.43c0,13.91,0,27.81,0,41.43
		C276.11,413.13,274.67,413.73,273.19,414.23z M277.7,265.82c-8.01-8.01-16.08-16.09-24.02-24.02c7.76-7.77,15.86-15.86,24.02-24.02
		C277.7,233.86,277.7,249.96,277.7,265.82z M226.58,373.11c0-0.75,0-1.51,0-2.18c8.14,8.16,16.25,16.29,24.4,24.46
		c-7.11,7.11-14.39,14.4-21.72,21.73c-2.15-0.41-2.75-1.71-2.73-4.01C226.66,399.78,226.58,386.45,226.58,373.11z M226.6,470.84
		c0-0.84,0-1.49,0-2.15c0-13.8,0.04-27.59-0.04-41.39c-0.01-1.82,0.21-3.12,2.41-3.36c7.34,7.39,14.76,14.86,22.17,22.31
		C243.01,454.39,234.93,462.49,226.6,470.84z M277.77,520.74c0,0.74-0.31,1.68-0.82,2.19c-8.16,8.25-16.37,16.45-24.68,24.78
		c-0.4-0.37-0.76-0.69-1.09-1.02c-7.85-7.85-15.71-15.68-23.52-23.57c-0.55-0.56-1.02-1.5-1.02-2.27
		c-0.06-15.59-0.04-31.18-0.04-46.77c0-0.31,0.03-0.62,0.09-1.53c8.59,8.58,16.88,16.85,25.17,25.12c0.15-0.07,0.3-0.14,0.45-0.21
		c-0.14-0.41-0.16-0.94-0.44-1.22c-4.21-4.21-8.42-8.42-12.71-12.55c-3.92-3.78-7.93-7.46-12.03-11.31
		c8.78-8.73,16.95-16.85,25.26-25.11c3.25,3.2,6.62,6.49,9.96,9.82c4.75,4.74,9.51,9.49,14.18,14.31c0.67,0.69,1.21,1.83,1.22,2.76
		C277.82,489.69,277.82,505.21,277.77,520.74z M277.81,212.68c0,0.76,0,1.53,0,2.6c-8.29-8.37-16.33-16.5-24.72-24.97
		c2.76-2.64,5.78-5.49,8.74-8.39c3.29-3.22,6.55-6.47,9.76-9.77c0.88-0.91,1.63-1.32,2.75-0.48c0.34,0.26,0.84,0.52,1.22,0.47
		c2.15-0.28,2.28,0.91,2.28,2.63C277.78,187.41,277.81,200.05,277.81,212.68z M281.54,323.24c6.99,7,13.9,13.92,20.53,20.55
		c-7.78,7.81-15.57,15.61-23.4,23.48c0-1.03,0-2.15,0-3.28c-0.01-12.57,0.06-25.14-0.09-37.71
		C278.56,323.82,280.6,324.3,281.54,323.24z M278.76,520.44c0-15.31,0-30.83,0-46.44c7.89,7.93,15.67,15.74,23.12,23.24
		C294.26,504.89,286.47,512.7,278.76,520.44z M303.13,496.49c-2.91-2.92-5.89-5.89-8.86-8.87c-4.84-4.85-9.71-9.66-14.47-14.58
		c-0.66-0.69-1.11-1.89-1.11-2.86c-0.06-13.72-0.04-27.45,0.02-41.17c0-0.51,0.51-1.15,0.96-1.49c0.75-0.57,1.65-0.95,2.5-1.42
		c15.2,15.21,30.41,30.44,45.66,45.71C319.61,480.03,311.41,488.21,303.13,496.49z M328.15,520.96
		c-7.82-7.84-15.73-15.77-23.66-23.71c7.82-7.82,15.7-15.69,23.66-23.65C328.15,489.44,328.15,505.28,328.15,520.96z M328.21,470.46
		c-9.94-9.95-19.55-19.57-29.16-29.19c-4.99-4.99-9.96-10-14.98-14.95c-0.81-0.8-0.96-1.33-0.32-2.41c1.52-2.59,1.16-5.26-0.36-7.74
		c6.71-6.7,13.37-13.33,20.27-20.22c3.83,3.91,7.74,7.93,11.68,11.92c2.65,2.69,5.36,5.32,7.98,8.04c0.52,0.54,1.08,1.38,1.05,2.05
		c-0.2,3.68,0.32,4.6,3.85,5.96C328.21,439.28,328.21,454.65,328.21,470.46z M325.22,416c-6.8-6.8-13.8-13.8-20.74-20.75
		c7-6.99,14.05-14.02,21.17-21.13c0.76,0.29,1.58,0.6,2.65,1c0,0.69,0,1.5,0,2.32c0,11.09,0,22.18,0,33.27
		C328.28,413.05,329.04,415.8,325.22,416z M328.31,273.77c0.02,12.05-0.01,24.1-0.02,36.16c0,0.5,0,1,0,1.39
		c-1.46,0.34-2.73,0.68-4.02,0.91c-0.37,0.07-0.92-0.01-1.17-0.26c-6.31-6.27-12.59-12.58-19.19-19.19c3.03-2.91,6-5.71,8.9-8.57
		c3.96-3.91,7.87-7.87,11.8-11.81c0.74-0.74,1.33-1.7,2.73-1.2C328.79,271.73,328.31,272.86,328.31,273.77z M481.15,262.09
		c0,0.56-0.42,1.45-0.85,1.6c-0.48,0.17-1.36-0.17-1.77-0.58c-5.49-5.45-10.91-10.96-16.39-16.42c-1.57-1.57-3.26-3.03-5-4.63
		c6.68-6.66,13.03-12.97,19.37-19.28c0.63-0.63,1.2-1.36,1.91-1.88c0.47-0.34,1.32-0.68,1.7-0.48c0.51,0.28,1.02,1.08,1.02,1.66
		c0.07,6.35,0.04,12.69,0.04,19.04C481.19,248.12,481.21,255.11,481.15,262.09z M448.36,232.94c-3.51-3.56-7.04-7.09-10.59-10.6
		c-0.76-0.75-1.13-1.26-0.42-2.41c1.49-2.4,1.2-4.9-0.47-8.18c6.6-6.6,13.16-13.17,20.1-20.1c2.66,2.78,5.45,5.76,8.31,8.67
		c4,4.06,8.05,8.09,12.11,12.1c0.72,0.71,0.76,1.23,0.48,2.28c-0.39,1.45-0.1,3.09-0.1,5.19c-6.67,6.67-13.88,13.87-21.38,21.36
		C453.75,238.51,451.08,235.7,448.36,232.94z M455.55,241.86c-8.15,8.12-16.38,16.32-24.66,24.57c0-14.09,0-28.26,0-42.32
		c1.65-0.62,3.31-1.23,5.16-1.92C442.54,228.74,449.07,235.32,455.55,241.86z M434.53,165.14c-1.1-2.22,0.58-3.22,1.83-4.46
		c5.53-5.5,11.05-11.03,16.57-16.53c1.17-1.17,2.38-2.3,3.67-3.56c0.24,0.21,0.53,0.44,0.79,0.7c6.58,6.58,13.15,13.17,19.76,19.72
		c0.77,0.77,0.82,1.4,0.63,2.47c-0.25,1.45,0.1,3,0.22,4.89c-6.94,6.95-14.19,14.21-21.58,21.61c-1.98-1.99-3.99-4.02-6.02-6.04
		c-5.12-5.12-10.27-10.22-15.33-15.4c-0.5-0.51-0.55-1.5-0.71-2.29C434.3,165.89,434.66,165.41,434.53,165.14z M477.94,116.8
		c0.18,0.08,0.35,0.15,0.53,0.23c-7.24,7.23-14.48,14.46-21.67,21.65c-8.21-8.28-16.36-16.49-24.46-24.65
		c7.88-7.88,16.06-16.06,24.63-24.64c2.91,3.05,5.82,6.17,8.81,9.21c3.68,3.74,7.4,7.45,11.16,11.11c0.92,0.9,1.12,1.68,0.82,2.99
		C477.47,113.98,477.86,115.43,477.94,116.8z M481.17,159.75c0,0.19-0.04,0.38-0.07,0.68c-0.74,0.29-1.39,0.54-1.87,0.73
		c-7.22-7.19-14.37-14.32-21.67-21.59c2.04-2.09,4.11-4.24,6.22-6.36c4.83-4.85,9.66-9.7,14.55-14.48c0.49-0.48,1.41-0.66,2.14-0.69
		c0.23-0.01,0.69,0.97,0.7,1.5C481.2,132.94,481.18,146.35,481.17,159.75z M481.19,211.83c-1.15,0.83-2.02,1-3.14-0.15
		c-6.55-6.67-13.19-13.25-19.79-19.87c-0.27-0.27-0.5-0.57-0.9-1.02c4.97-4.97,9.82-9.82,14.66-14.66c2.27-2.27,4.51-4.55,6.83-6.76
		c0.35-0.33,1.13-0.46,1.59-0.31c0.34,0.11,0.71,0.81,0.71,1.25C481.19,184.16,481.19,198,481.19,211.83z M456.88,38.44
		c3.83,3.9,7.76,7.94,11.72,11.93c3.88,3.91,7.82,7.77,11.67,11.72c0.51,0.52,0.87,1.42,0.87,2.15c0.06,14.62,0.06,29.25,0.01,43.87
		c0,0.57-0.54,1.45-1.03,1.62c-0.6,0.2-1.64,0.05-2.07-0.38c-10.66-10.61-21.26-21.27-31.87-31.92c-2.89-2.9-5.8-5.78-8.63-8.73
		c-0.32-0.33-0.51-1.19-0.32-1.56c1.62-3.09,1.24-5.99-0.49-8.53C443.43,51.91,450.04,45.29,456.88,38.44z M435.62,69.05
		c6.63,6.63,13.25,13.24,19.83,19.82c-7.97,7.97-16.13,16.12-24.33,24.31c-8.2-8.2-16.39-16.39-24.44-24.45
		c6.45-6.45,12.97-12.97,19.56-19.56C429.23,71.12,432.49,71.27,435.62,69.05z M426.93,168.61c-7.12,7.07-14.28,14.17-21.42,21.26
		c-3.31-3.26-6.59-6.48-9.86-9.71c-3.51-3.46-7.02-6.92-10.48-10.42c-0.34-0.34-0.44-1.05-0.43-1.58c0.03-1.37,0.55-2.84,0.2-4.09
		c-0.49-1.74-0.27-2.79,1.07-4.09c6.53-6.33,12.92-12.81,19.31-19.18c7.11,7.15,14.22,14.29,21.46,21.57
		C425.4,164.97,425.4,165.25,426.93,168.61z M429.57,263.09c0,0.56,0,1.11,0,1.65c-7.69-7.71-15.31-15.34-22.82-22.86
		c6.37-6.38,12.89-12.9,19.45-19.47c3.1,0.42,3.47,2.42,3.43,5.24C429.47,239.47,429.57,251.28,429.57,263.09z M333,324.17
		c6.71,6.7,13.44,13.42,20.56,20.54c-2.17,2.04-4.63,4.26-6.99,6.59c-4.84,4.77-9.6,9.61-14.45,14.36c-0.5,0.49-1.37,0.62-2.07,0.92
		c-0.21-0.68-0.6-1.35-0.6-2.03c-0.04-12.76-0.03-25.53-0.03-38.23C330.82,325.49,332,324.77,333,324.17z M332.72,313.45
		C332.76,313.46,332.74,313.46,332.72,313.45L332.72,313.45z M334.58,323.48c-0.28-0.28-0.48-0.97-0.33-1.31
		c1.18-2.66,0.76-5.19-0.47-7.57c6.9-6.91,13.74-13.76,20.5-20.51c8.17,8.17,16.38,16.39,24.53,24.54
		c-8.03,8.01-16.21,16.18-24.61,24.56C347.68,336.66,341.11,330.08,334.58,323.48z M332.76,266.21c-0.35-1.08-0.2-1.75,0.6-2.54
		c6.99-6.94,13.93-13.92,21.08-21.08c5.03,5.09,9.98,10.1,14.93,15.11c1.8,1.82,3.6,3.66,5.44,5.44c1.16,1.12,2.29,2.17,2.04,4.04
		c-0.08,0.56,0.36,1.2,0.53,1.71c-7.66,7.65-15.31,15.3-23.24,23.22c-5.14-5.19-10.32-10.43-15.51-15.66
		c-1.85-1.87-3.68-3.75-5.59-5.56c-0.74-0.71-0.97-1.29-0.52-2.3C332.83,267.88,332.99,266.91,332.76,266.21z M332.78,215.74
		c-1.03-1.55-0.15-2.32,0.84-3.3c6.63-6.6,13.22-13.24,19.83-19.86c0.27-0.27,0.57-0.5,0.94-0.83c0.41,0.35,0.81,0.64,1.15,0.99
		c6.81,6.8,13.62,13.6,20.4,20.43c0.4,0.41,0.69,1.02,0.82,1.59c0.24,1.1,0.32,2.23,0.49,3.52c-7.58,7.58-15.19,15.17-23.02,22.99
		c-3.47-3.53-6.91-7.03-10.36-10.51c-3.52-3.55-7.08-7.06-10.54-10.67c-0.45-0.47-0.53-1.38-0.61-2.1
		C332.65,217.23,333.11,216.24,332.78,215.74z M383.57,160.6c-2.44-2.16-5.29-3.18-8.67-1.92c-0.34,0.13-1.01-0.19-1.33-0.5
		c-5.98-5.97-11.94-11.96-17.89-17.96c-0.13-0.13-0.24-0.3-0.25-0.32c7.54-7.54,15.05-15.05,22.35-22.35
		c1.53,0.14,3.04,0.26,4.54,0.45c0.39,0.05,0.83,0.27,1.11,0.55c6.95,6.92,13.88,13.85,20.82,20.79c0.13,0.13,0.19,0.31,0.25,0.41
		C397.52,146.69,390.59,153.6,383.57,160.6z M383.69,170.13c6.89,6.98,13.73,13.92,20.65,20.93c-6.78,6.67-13.78,13.55-20.89,20.55
		c-2.09-1.18-4.24-0.81-6.04,1.07c-7.37-7.38-14.63-14.67-22.05-22.11c4.53-4.49,9.25-9.17,13.96-13.85c0.64-0.63,1.27-1.26,1.9-1.9
		c1.52-1.55,2.69-3.11,5.55-2.02C379.32,173.76,381.82,172.19,383.69,170.13z M372.84,159.13c-0.86,2.11-2.29,4.13-2.36,6.19
		c-0.07,2.03,1.22,4.11,1.95,6.29c-5.77,5.76-11.92,11.9-17.99,17.95c-7.97-7.99-16.14-16.2-24.12-24.2
		c7.93-7.93,16.11-16.11,24.42-24.42C360.69,146.92,366.92,153.18,372.84,159.13z M353.5,191.17c-4.85,4.81-9.85,9.77-14.84,14.73
		c-2,1.99-4.07,3.91-5.96,5.99c-1.05,1.16-1.98,1.32-3.17,0.43c0-15.1,0-30.18,0-45.14C337.47,175.13,345.42,183.08,353.5,191.17z
		 M380.14,319.44c8.08,8.16,16.18,16.34,24.45,24.69c-1.28,1.34-2.59,2.79-3.98,4.18c-4.96,4.97-9.95,9.9-14.91,14.87
		c-1.04,1.04-1.88,1.76-3.7,1.34c-1.48-0.34-3.25,0.55-5.17,0.95c-6.85-6.86-14.12-14.15-21.33-21.38
		C363.61,335.97,371.84,327.74,380.14,319.44z M380.02,317.46c-8.07-8.1-16.29-16.34-24.66-24.74c0.76-0.74,1.73-1.65,2.66-2.59
		c6.36-6.35,12.72-12.69,19.04-19.07c0.82-0.83,1.52-0.71,2.6-0.69c3.01,0.04,4.45,2.15,6.21,3.9c6.23,6.19,12.43,12.41,18.68,18.65
		C396.27,301.22,388.12,309.37,380.02,317.46z M383.15,262.46c-2.36-1.04-4.2-0.29-5.79,1.36c-7.33-7.37-14.62-14.7-21.94-22.07
		c7.53-7.52,15.22-15.2,22.77-22.74c1.2,0.19,2.31,0.34,3.41,0.56c0.47,0.1,1.01,0.24,1.33,0.56c7.23,7.18,14.44,14.38,21.88,21.81
		c-2.31,2.27-4.55,4.43-6.76,6.63c-4.4,4.39-8.78,8.81-13.21,13.17C384.43,262.16,383.55,262.63,383.15,262.46z M383.58,219.1
		c1.64-1.78,2.36-3.78,1.2-6.2c-0.15-0.32,0.55-1.19,1.01-1.65c5.73-5.76,11.47-11.51,17.25-17.22c2.47-2.43,2.53-2.4,4.96,0.03
		c5.34,5.34,10.65,10.72,16.02,16.03c0.9,0.9,1.13,1.51,0.38,2.74c-1.64,2.7-1.33,5.02,0.62,8.28c-6.6,6.56-13.17,13.11-19.76,19.67
		C398.19,233.7,390.95,226.46,383.58,219.1z M429.53,208.89c-1.11,0.52-2.19,1.02-3.27,1.53c-6.5-6.56-13.05-13.17-19.72-19.9
		c6.77-6.78,13.62-13.68,20.54-20.5c0.51-0.51,1.5-0.53,2.45-0.84C429.53,182.76,429.53,195.83,429.53,208.89z M404.35,137.96
		c-6.62-6.7-13.29-13.35-19.94-20.01c-0.13-0.13-0.22-0.3-0.32-0.43c1.6-3.59,1.62-4.33,0.4-6.46c7.19-7.19,14.2-14.2,21.05-21.05
		c8.02,8.02,16.21,16.21,24.59,24.58c-3.41,3.36-6.98,6.86-10.52,10.37c-4.32,4.29-8.64,8.59-12.91,12.92
		C405.85,138.73,405.29,138.91,404.35,137.96z M405.71,38.72c6.38,6.37,12.93,12.91,19.6,19.57c-2.43,3.22-2.55,6.46-0.25,9.66
		c-6.61,6.57-13.15,13.06-19.65,19.53c-7.98-7.98-16.16-16.15-24.31-24.3C389.26,55.06,397.48,46.9,405.71,38.72z M379.82,64.3
		c8.07,8.08,16.26,16.27,24.74,24.76c-2.88,2.8-6.02,5.8-9.1,8.85c-3.7,3.65-7.38,7.31-11.02,11.03c-0.81,0.83-1.49,0.87-2.64,0.74
		c-1.37-0.15-2.83,0.49-4.65,0.86c-7.07-7.07-14.45-14.46-21.78-21.81C363.54,80.58,371.75,72.37,379.82,64.3z M361.77,96.8
		c4.64,4.7,9.32,9.35,13.99,14.02c1.53,1.53,1.57,5.17,0.07,6.68c-7.07,7.08-14.14,14.16-21.23,21.26
		c-7-7.13-13.92-14.18-21.02-21.41c1.35-1.91,1.71-4.32,0.98-6.96c-0.14-0.49,0.11-1.32,0.48-1.7c6.26-6.49,12.57-12.93,19.21-19.74
		C357,91.84,359.35,94.36,361.77,96.8z M329.51,64.96c7.91,7.96,15.78,15.87,23.64,23.78c-6.4,6.45-12.92,13.01-19.4,19.53
		c-1.38-0.92-2.73-1.82-4.24-2.83C329.51,92.12,329.51,78.55,329.51,64.96z M332.63,118.93c6.87,6.77,13.88,13.69,20.82,20.54
		c-8.02,8-15.95,15.91-24.02,23.96c0-0.56,0-1.2,0-1.85c0-12.57,0.03-25.15-0.02-37.72C329.4,121.49,329.08,119.1,332.63,118.93z
		 M329.39,223.36c-0.01-1.79,0.38-2.93,1.9-3.24c7.43,7.36,14.74,14.6,22.21,22c-7.29,7.27-14.5,14.46-21.74,21.68
		c-1.7-0.34-2.38-1.21-2.37-3.11C329.47,248.25,329.47,235.8,329.39,223.36z M329.36,307.01c0.16-11.29,0.05-22.59,0.1-33.89
		c0-0.68,0.4-1.58,0.91-1.95c0.35-0.25,1.44,0.04,1.85,0.44c7.13,7.02,14.2,14.09,21.16,21.03c-6.94,6.91-13.77,13.72-20.83,20.75
		C329.53,312.28,329.32,309.91,329.36,307.01z M329.43,469.82c0-0.35,0-0.9,0-1.45c0-14.12-0.01-28.23,0.03-42.35
		c0-0.86,0.4-1.71,0.61-2.57c0.7,0.44,1.52,0.77,2.09,1.33c6.68,6.63,13.32,13.29,19.97,19.95c0.45,0.45,0.87,0.93,1.19,1.27
		C345.32,453.98,337.39,461.88,329.43,469.82z M354.58,445.2c-7.49-7.56-14.99-15.13-22.7-22.91c0.14-0.27,0.57-0.97,0.85-1.72
		c0.68-1.87-0.27-3.86-2.3-5.18c-0.44-0.28-0.96-0.88-0.96-1.33c-0.05-13.02-0.04-26.04-0.04-39.01c0.9-0.5,1.72-0.96,2.46-1.37
		c15.76,15.74,31.46,31.42,47.13,47.07C370.85,428.92,362.7,437.08,354.58,445.2z M379.58,419.79c-2.59-2.63-5.39-5.5-8.22-8.34
		c-12.54-12.55-25.09-25.1-37.64-37.64c-0.73-0.73-1.27-1.28-0.94-2.6c0.27-1.08-0.39-2.4-0.68-3.84
		c7.23-7.23,14.73-14.74,22.43-22.44c7.33,7.35,14.54,14.56,21.71,21.82c0.38,0.38,0.52,1.13,0.55,1.71
		c0.13,2.75,1.68,4.29,4.44,4.42c0.58,0.03,1.32,0.18,1.71,0.56c7.25,7.17,14.46,14.38,21.59,21.5
		C396.2,403.22,387.99,411.4,379.58,419.79z M405.22,394.23c-6.86-6.89-13.93-13.95-20.94-21.07c-0.29-0.3-0.3-1.31-0.02-1.65
		c1.49-1.79,1.27-3.61,0.11-6.13c2.56-2.39,5.35-4.91,8.04-7.54c3.98-3.89,7.9-7.83,11.79-11.81c0.9-0.92,1.48-1.09,2.48-0.07
		c6.21,6.29,12.47,12.54,18.75,18.77c0.8,0.8,1.18,1.48,0.66,2.64c-0.87,1.92,0.14,3.41,1.33,4.67
		C420.05,379.39,412.69,386.76,405.22,394.23z M429.49,417.58c-7.42-7.43-15.04-15.05-22.15-22.16c7.17-7.19,14.68-14.71,22.15-22.2
		C429.49,387.98,429.49,402.98,429.49,417.58z M429.51,364.11c-0.72,0.33-1.4,0.63-2.05,0.93c-6.95-6.95-13.92-13.9-20.8-20.78
		c7.63-7.58,15.29-15.2,22.86-22.72C429.51,335.52,429.51,349.81,429.51,364.11z M428.7,320.19c-4.4,4.36-8.8,8.73-13.17,13.13
		c-3.29,3.31-6.52,6.67-9.8,10.02c-8.38-8.39-16.55-16.58-24.75-24.79c8.19-8.14,16.4-16.29,24.69-24.54
		c6.35,6.36,12.81,12.84,19.28,19.32c1.22,1.23,2.39,2.51,3.69,3.65C429.91,318.09,429.84,319.06,428.7,320.19z M406.84,293.07
		c7.4-7.33,15.07-14.93,22.65-22.44c0,14.83,0,30.05,0,45.23C421.9,308.23,414.33,300.61,406.84,293.07z M428.34,269.45
		c-7.55,7.57-15.12,15.13-22.63,22.63c-7.36-7.4-14.64-14.73-21.98-22.12c1.67-1.54,2.06-3.55,1.12-5.88
		c-0.11-0.28,0.13-0.86,0.39-1.12c6.68-6.73,13.39-13.44,20.19-20.24c0.51,0.47,0.93,0.83,1.32,1.22
		c7.17,7.16,14.33,14.33,21.5,21.5C430.1,267.28,430.13,267.64,428.34,269.45z M428.48,161.23c-0.44-0.04-0.98-0.21-1.29-0.51
		c-6.96-6.88-13.89-13.8-20.95-20.82c8.39-8.39,16.53-16.54,24.52-24.53c8.2,8.2,16.37,16.39,24.59,24.61
		c-7.16,7.1-14.67,14.53-21.75,21.55C431.71,161.42,430.09,161.36,428.48,161.23z M430.73,207.23c-0.02-11.42-0.01-22.84-0.01-34.25
		c0-1.02,0-2.05,0-3.13c0.9-0.46,1.78-0.91,2.7-1.39c7.45,7.4,14.89,14.8,22.36,22.24c-6.77,6.78-13.35,13.35-19.75,19.76
		c-1.51-0.46-2.9-1.01-4.34-1.3C430.38,208.89,430.73,207.98,430.73,207.23z M430.71,317.53c0-4.15,0-8.3,0-12.45
		c0-11.61-0.02-23.22,0.06-34.82c0.01-0.94,0.51-2.1,1.17-2.77c8.19-8.27,16.46-16.46,24.87-24.84c6.81,6.88,13.64,13.79,20.5,20.69
		c0.82,0.82,1.31,1.44,0.58,2.75c-0.48,0.86-0.1,2.18-0.19,3.29c-0.06,0.72-0.03,1.67-0.46,2.1c-7.36,7.46-14.78,14.85-22.18,22.27
		c-5.55,5.56-11.09,11.12-16.62,16.7c-2.42,2.44-4.78,4.93-7.17,7.4C431.08,317.75,430.9,317.64,430.71,317.53z M481.14,368.42
		c0,0.87-0.52,1.94-1.15,2.57c-7.55,7.67-15.17,15.27-22.77,22.88c-8.38,8.38-16.76,16.75-25.15,25.12c-0.3,0.3-0.66,0.55-1.29,1.06
		c0-15.92,0-31.43,0-47.02c2.53-0.97,4.23-2.52,3.68-5.59c-0.06-0.32,0.36-0.79,0.66-1.09c15.23-15.25,30.47-30.49,45.89-45.91
		c0.08,0.59,0.18,0.99,0.18,1.39C481.19,337.36,481.21,352.89,481.14,368.42z M481.15,316.85c0,0.97-0.36,2.21-1.01,2.86
		c-15.06,15.16-30.18,30.25-45.3,45.35c-0.31,0.31-0.65,0.59-0.88,0.81c-0.98-0.55-1.9-0.98-2.69-1.56
		c-0.32-0.24-0.53-0.83-0.53-1.26c-0.03-14.19-0.04-28.37,0.02-42.56c0-0.65,0.49-1.43,0.97-1.92c4.5-4.56,9.04-9.07,13.58-13.6
		c5.62-5.61,11.25-11.21,16.85-16.83c5.34-5.35,10.62-10.75,16.04-16.01c0.54-0.53,1.86-0.25,2.99-0.36c0,1.38,0,2.34,0,3.3
		C481.19,289,481.21,302.93,481.15,316.85z M531.8,117.15c0.2,0.48,0.57,0.97,0.57,1.45c0.03,14.68,0.02,29.35,0.01,44.03
		c0,0.17-0.07,0.34-0.18,0.81c-8-8.01-15.79-15.83-23.77-23.82c1.55-1.52,3.1-3.02,4.63-4.54c5.71-5.7,11.41-11.43,17.15-17.11
		C530.61,117.58,531.26,117.42,531.8,117.15z M482.48,272.28c1.73-1.48,2.99-0.86,4.55,0.77c6.32,6.55,12.81,12.92,19.24,19.37
		c0.13,0.13,0.23,0.3,0.39,0.5c-8.12,8.1-16.14,16.12-24.18,24.14C482.48,302.26,482.48,287.31,482.48,272.28z M482.38,263.32
		c0-14.09,0-28.19,0-42.31c1.54-1.32,2.64-0.98,4.08,0.49c6.39,6.56,12.94,12.97,19.43,19.44c0.26,0.26,0.5,0.56,0.79,0.88
		c-7.46,7.42-14.87,14.79-22.45,22.32C483.73,263.91,483.08,263.63,482.38,263.32z M486.53,271.06c-0.36-0.37-0.68-0.92-0.74-1.43
		c-0.18-1.39-0.27-2.8-0.28-4.2c0-0.42,0.31-0.92,0.63-1.24c6.71-6.77,13.44-13.52,20.18-20.26c0.39-0.39,0.87-0.71,1.3-1.05
		c8.23,8.25,16.41,16.45,24.55,24.6c-8.1,8.1-16.29,16.29-24.65,24.65C500.51,285.12,493.51,278.1,486.53,271.06z M508.58,241.41
		c3.2-3.12,6.69-6.49,10.14-9.89c3.65-3.59,7.26-7.21,10.93-10.78c0.37-0.36,1.15-0.69,1.53-0.53c0.5,0.2,1.15,0.9,1.15,1.39
		c0.05,14.5,0.04,28.99,0.02,43.49c0,0.1-0.11,0.2-0.1,0.18C524.46,257.41,516.65,249.54,508.58,241.41z M529.11,219.68
		c-6.03,6.08-12.11,12.11-18.14,18.19c-1.08,1.08-2.02,2.3-2.97,3.38c-7.63-7.63-14.96-14.96-22.16-22.17c0-1.74,0-3.5,0-5.24
		c7.2-7.24,14.54-14.62,21.86-21.98c7.39,7.38,14.64,14.63,21.39,21.37c0.16,2.05,0.31,3.61,0.38,5.16
		C529.47,218.83,529.38,219.41,529.11,219.68z M507.38,190.1c-2.34-2.45-4.72-5.01-7.18-7.5c-4.5-4.56-9.03-9.1-13.59-13.6
		c-0.9-0.89-1.47-1.65-0.73-2.93c0.26-0.46,0.45-1.22,0.24-1.64c-0.85-1.75,0.22-2.65,1.29-3.72c6.73-6.68,13.42-13.39,20.15-20.13
		c8.26,8.31,16.45,16.54,24.6,24.74C524.09,173.39,515.91,181.57,507.38,190.1z M482.32,119.95c0-0.88-0.1-1.62,1.06-2.14
		c1.17-0.53,1.63,0.06,2.25,0.68c7.01,7,14.03,14,20.87,20.83c-7.37,7.34-14.66,14.6-22.08,21.99c-0.34-0.17-1.17-0.57-2.1-1.02
		c0-4.37,0-8.79,0-13.22C482.32,138.04,482.32,128.99,482.32,119.95z M517.41,99.18c3.46,3.52,6.95,7.01,10.44,10.5
		c0.62,0.62,0.95,1.11,0.82,2.23c-0.17,1.48,0.52,3.06,0.88,4.8c-7.06,7.05-14.49,14.47-22.07,22.04c-1.27-1.23-2.65-2.52-4-3.86
		c-5.84-5.82-11.68-11.66-17.51-17.48c-0.14-0.14-0.42-0.27-0.41-0.39c0.23-2.09-0.27-4.9,0.89-6.13
		c6.84-7.26,14.07-14.15,21.47-21.46C511.02,92.59,514.19,95.9,517.41,99.18z M482.32,66.69c0-0.69,0-1.39,0-2.42
		c8.29,8.26,16.3,16.26,24.33,24.26c-7.33,7.28-14.61,14.5-22.06,21.89c-1.88-0.24-2.35-1.54-2.33-3.73
		C482.38,93.36,482.32,80.03,482.32,66.69z M482.27,209.35c0.1-12.64,0.05-25.29,0.05-37.93c0-0.7,0-1.41,0-2.07
		c0.77-0.34,1.45-0.65,1.79-0.8c7.58,7.59,15,15.02,22.33,22.36c-7.18,7.21-14.5,14.56-21.89,21.97
		C482.66,212.62,482.26,211.36,482.27,209.35z M528.1,322.99c-9.98,9.86-19.88,19.8-29.8,29.72c-4.53,4.53-9.05,9.07-13.54,13.64
		c-0.66,0.68-1.12,1.55-1.67,2.34c-0.22-0.16-0.44-0.32-0.66-0.47c-0.03-0.53-0.1-1.07-0.1-1.6c-0.01-15.27-0.02-30.55,0.05-45.82
		c0-0.94,0.48-2.12,1.15-2.78c7.97-8.08,16.02-16.08,24.2-24.25c7.21,7.22,14.27,14.29,21.33,21.37c0.23,0.23,0.64,0.64,0.59,0.7
		C528.13,318.01,530.26,320.87,528.1,322.99z M532.35,312.53c0,0.87-0.51,1.74-0.79,2.61c-0.74-0.41-1.62-0.68-2.21-1.25
		c-6.97-6.86-13.9-13.76-20.76-20.57c8.01-8.01,15.84-15.83,23.79-23.79c0,0.7,0,1.37,0,2.04
		C532.39,285.22,532.4,298.88,532.35,312.53z M531.39,212.3c-0.72,0.03-1.66-0.28-2.16-0.78c-6.93-6.84-13.8-13.75-20.7-20.66
		c7.84-7.89,15.64-15.73,23.86-24.01c0,1.04,0,1.53,0,2.02c0,13.79,0,27.57-0.01,41.36C532.38,211.07,532.74,212.25,531.39,212.3z
		 M606.1,146.08c2.52,1.56,5.06,1.32,7.65,0.05c0.49-0.24,1.51-0.17,1.87,0.18c6.26,6.16,12.45,12.39,18.66,18.61
		c0.08,0.08,0.1,0.22,0.11,0.25c-15.19,15.19-30.35,30.36-45.54,45.55c-1.3-0.63-2.55-1.23-4.07-1.96c0-0.35,0-0.98,0-1.61
		c0-12.31,0-24.63,0-36.94c0-0.96-0.1-1.74,1.17-2.23c1.77-0.68,2.43-2.21,2.4-4.18c-0.02-0.95,0.38-2.15,1.02-2.82
		c4.82-4.95,9.77-9.77,14.63-14.68C604.72,145.53,605.27,145.57,606.1,146.08z M629.98,216.92c-0.06,0.43-0.14,0.96,0.05,1.29
		c1.02,1.77,0.1,2.83-1.13,4.04c-5.98,5.88-11.89,11.84-17.83,17.77c-0.36,0.36-0.77,0.65-1.29,1.09
		c-4.15-4.15-8.25-8.25-12.35-12.36c-2.31-2.31-4.64-4.6-6.9-6.95c-0.33-0.35-0.61-1.19-0.43-1.53c1.53-2.87,1.39-5.63-0.28-8.18
		c14.85-14.85,29.61-29.61,44.51-44.51c0,15.12,0,30.11,0,45.26C632.24,213.45,630.32,214.39,629.98,216.92z M634.31,222.07
		c0,14.35,0,28.69,0,43.07c-7.78-7.84-15.5-15.61-23.18-23.34c6.74-6.74,13.66-13.66,20.64-20.64
		C632.52,221.43,633.41,221.75,634.31,222.07z M628.94,323.91c-6.41,6.41-12.79,12.79-19.34,19.34c-3.76-3.79-7.58-7.65-11.42-11.5
		c-4.17-4.18-8.36-8.32-12.5-12.52c-0.45-0.45-0.88-1.17-0.88-1.77c-0.05-14.31-0.04-28.62-0.04-43.01c0.56-0.2,1.18-0.27,1.58-0.6
		c1.9-1.6,3.08-0.61,4.52,0.85c12.56,12.67,25.19,25.27,37.79,37.89c0.31,0.31,0.59,0.65,0.86,0.96
		C626.48,318.03,627.03,320.75,628.94,323.91z M631.85,372.33c-7.37,7.45-14.58,14.73-21.97,22.19c-3.66-3.7-7.27-7.38-10.91-11.03
		c-3.43-3.44-6.9-6.85-10.35-10.27c-0.14-0.13-0.43-0.24-0.43-0.36c0.02-2.15,0.08-4.3,0.13-6.44c7.11-7.12,14.21-14.23,21.58-21.61
		c3.43,3.5,6.77,6.93,10.13,10.33c3.24,3.28,6.53,6.51,9.76,9.8c0.37,0.37,0.76,1.17,0.6,1.54
		C629.38,368.82,630.11,370.67,631.85,372.33z M584.82,374.29c0.78-0.35,1.46-0.65,2.1-0.94c7.25,7.29,14.5,14.59,21.68,21.81
		c-6.55,6.49-13.35,13.22-20.3,20.11c-0.78-0.34-2.09-0.91-3.48-1.51C584.82,400.71,584.82,387.57,584.82,374.29z M584.81,364.12
		c-0.07-8.33-0.05-16.66-0.05-24.99c0-6.26,0-12.52,0-18.79c8.04,8.07,16,16.06,24.01,24.09c-6.89,6.89-14,14.01-21.15,21.08
		c-0.37,0.37-1.35,0.64-1.69,0.41C585.39,365.55,584.82,364.74,584.81,364.12z M584.77,259.25c0-11.35-0.01-22.82,0.04-34.28
		c0-0.51,0.53-1.19,1-1.48c0.95-0.6,2.03-0.99,3.15-1.51c6.51,6.62,13.09,13.3,19.76,20.08c-6.41,6.38-12.97,12.9-19.58,19.47
		C587.85,260.85,586.37,260.08,584.77,259.25z M533.52,116.83c0.97,0.35,1.9,0.42,2.39,0.91c9.92,9.85,19.78,19.76,29.66,29.65
		c4.53,4.53,9.05,9.07,13.6,13.57c0.61,0.61,0.8,1.07,0.71,2.05c-0.13,1.46,0.43,2.99,0.82,5.13c-6.97,6.99-14.36,14.4-22.01,22.06
		c-2.54-2.61-4.95-5.15-7.42-7.62c-5.56-5.56-11.16-11.08-16.68-16.67c-0.56-0.57-1.01-1.53-1.01-2.31
		C533.51,148.21,533.52,132.82,533.52,116.83z M537.24,317.59c-0.87-1.45-0.24-2.1,0.7-3.03c6.7-6.63,13.34-13.3,20.01-19.96
		c0.22-0.22,0.46-0.43,0.9-0.84c4.85,4.91,9.65,9.78,14.46,14.64c3.11,3.14,6.28,6.23,9.35,9.42c0.51,0.53,0.95,1.41,0.96,2.12
		c0.05,15.08,0.04,30.16,0.04,45.36c-0.6,0.29-1.2,0.58-2.23,1.08c-3.24-3.34-6.53-6.82-9.91-10.22
		c-6.76-6.82-13.56-13.61-20.35-20.4c-4.48-4.48-8.99-8.93-13.44-13.44c-0.33-0.34-0.35-1.05-0.38-1.6
		C537.3,319.66,537.71,318.37,537.24,317.59z M578.17,221.35c-6.56,6.54-13.07,13.03-19.55,19.49
		c-7.13-7.13-14.41-14.43-21.19-21.22c-0.12-2.15-0.24-3.77-0.27-5.39c-0.01-0.5,0.09-1.16,0.41-1.49
		c5.26-5.32,10.58-10.57,15.84-15.89c1.7-1.72,3.28-3.57,5.09-5.54c6.08,6.09,11.62,11.75,17.3,17.27c1.66,1.61,2.73,2.74,1.14,5.24
		C575.31,216.39,576.53,219.1,578.17,221.35z M578.48,272.24c-6.58,6.6-13.14,13.19-19.63,19.71c-8.13-8.16-16.29-16.36-24.34-24.45
		c8.02-8,16.26-16.21,24.42-24.34c6.15,6.13,12.57,12.55,19.09,19.05C575.56,266.06,575.68,268.41,578.48,272.24z M560.08,242.05
		c6.35-6.35,12.87-12.86,19.45-19.43c1.07,0.38,2.53,0.91,4.08,1.47c0,11.74,0,23.53,0,35.12c-1.74,0.65-3.21,1.2-4.66,1.74
		C572.69,254.67,566.31,248.29,560.08,242.05z M557.06,240.97c0.27,0.27,0.51,0.55,0.87,0.94c-8.13,8.13-16.11,16.1-24.25,24.24
		c-0.06-0.6-0.14-1.06-0.14-1.52c-0.01-14.06,0-28.11-0.02-42.17c0-0.91-0.04-1.66,1.09-2.1c1.07-0.42,1.69-0.2,2.46,0.58
		C543.71,227.63,550.39,234.29,557.06,240.97z M533.52,268.89c8.21,8.22,16.2,16.23,24.43,24.47c-4.23,4.15-8.52,8.35-12.79,12.57
		c-2.73,2.7-5.44,5.42-8.15,8.15c-0.74,0.75-1.53,1.67-2.58,0.86c-0.54-0.42-0.87-1.43-0.87-2.17c-0.05-14.18-0.04-28.37-0.05-42.55
		C533.52,269.85,533.52,269.48,533.52,268.89z M583.62,316.68c-7.9-7.92-15.78-15.82-23.65-23.71c6.45-6.33,13.1-12.85,19.95-19.57
		c0.92,0.29,2.23,0.7,3.7,1.16C583.62,288.51,583.62,302.63,583.62,316.68z M583.62,208.73c-1.34,0.49-2.61,1.04-3.93,1.39
		c-0.39,0.1-1.05-0.24-1.39-0.57c-3.92-3.86-7.8-7.76-11.69-11.64c-2.3-2.3-4.62-4.58-6.99-6.93c0.35-0.48,0.56-0.87,0.86-1.17
		c6.92-6.92,13.84-13.84,20.81-20.71c0.5-0.5,1.34-0.65,2.33-1.11C583.62,181.99,583.62,195.38,583.62,208.73z M533.6,166.71
		c8.13,8.22,16.04,16.21,24.45,24.72c-3.15,2.95-6.54,6.04-9.83,9.23c-3.67,3.55-7.29,7.17-10.86,10.83
		c-0.86,0.89-1.57,1.18-2.78,0.75c-1.31-0.46-1.05-1.4-1.05-2.31c-0.01-13.99-0.02-27.98-0.03-41.97
		C533.5,167.65,533.55,167.34,533.6,166.71z M533.47,323.79c1.03-0.48,1.95-0.9,2.91-1.34c14.44,14.44,28.87,28.9,43.33,43.32
		c0.76,0.76,0.85,1.32,0.47,2.33c-0.36,0.96-0.65,2.31-0.24,3.11c0.67,1.33,0.15,1.92-0.67,2.73
		c-14.07,14.05-28.13,28.1-42.16,42.19c-0.83,0.84-1.63,1.35-2.58,0.58c-0.51-0.42-0.96-1.26-0.96-1.91
		c-0.07-26.43-0.08-52.86-0.1-79.29C533.47,331.6,533.47,327.69,533.47,323.79z M583.72,469.65c0.01,1.38-0.37,2.37-1.37,3.36
		c-15.09,15.02-30.17,30.06-45.16,45.18c-1.55,1.56-2.34-0.39-3.67-0.03c0-15.2-0.01-30.03,0.04-44.85c0-0.65,0.47-1.44,0.95-1.93
		c7.48-7.55,15-15.08,22.52-22.59c6.8-6.8,13.61-13.59,20.42-20.38c0.45-0.45,0.93-0.87,1.35-1.26c1.58,0.63,3.11,1.23,4.91,1.94
		c0,3.88,0,7.98,0,12.07C583.71,450.65,583.67,460.15,583.72,469.65z M582.04,524.5c-15.61,15.52-31.15,31.11-46.72,46.67
		c-0.48,0.48-0.99,0.94-1.79,1.71c0-14.4,0-28.32,0-42.25c0-0.71,0.06-1.42-0.01-2.12c-0.12-1.11,0.26-1.66,1.39-2.07
		c2.15-0.77,3.13-2.85,2.49-5.09c-0.33-1.17-0.1-1.89,0.78-2.77c14.83-14.75,29.61-29.54,44.4-44.33c0.25-0.25,0.52-0.49,1.01-0.95
		c0.04,0.79,0.09,1.27,0.09,1.75c0.01,15.15-0.01,30.29,0.04,45.44C583.72,522.16,583.23,523.32,582.04,524.5z M583.66,376.35
		c0.04,12.19,0.04,24.38,0.05,36.57c0,0.25-0.07,0.49-0.1,0.72c-7.63,1.47-8.87,8.08-5.59,12.54
		c-14.75,14.68-29.5,29.37-44.33,44.13c0-14.95,0-29.9,0-44.88c3.97-1.61,4.75-3.42,2.96-7.73c0.7-0.59,1.59-1.23,2.36-1.99
		c13.67-13.64,27.33-27.3,40.97-40.97c0.82-0.82,1.44-1.32,2.76-0.78C584.11,374.53,583.66,375.5,583.66,376.35z M580.94,160.99
		c-14.97-14.97-29.88-29.88-44.59-44.59c0.23-1.6,0.41-3.11,0.7-4.61c0.1-0.51,0.4-1.05,0.77-1.43c5.74-5.78,11.5-11.53,17.26-17.29
		c0.35-0.35,6.92-0.45,7.26-0.11c13.79,13.78,27.57,27.57,41.35,41.36c0.13,0.13,0.21,0.31,0.36,0.53c-2.01,3.16-2.31,6.37,0,9.66
		c-5.59,5.47-11.18,10.94-16.87,16.5C585.28,159.48,583.07,159.24,580.94,160.99z M584.77,470.09c0-0.66,0-1.27,0-1.88
		c0-12.51,0.01-25.02-0.02-37.53c0-1.34,0.14-2.06,1.73-2.56c3.96-1.25,5.79-6.37,3.91-10.16c-0.25-0.51-0.56-1-0.81-1.46
		c6.79-6.76,13.53-13.47,20.19-20.1c8.03,8.02,16.24,16.23,24.32,24.31C617.73,437.08,601.31,453.52,584.77,470.09z M634.3,418.6
		c-7.85-7.92-15.56-15.7-23.63-23.84c1.79-1.67,3.82-3.49,5.75-5.41c5.23-5.17,10.42-10.39,15.65-15.56c0.51-0.5,1.26-0.75,2.22-1.3
		C634.3,388.18,634.3,403.31,634.3,418.6z M634.36,362.28c0,0.69-0.37,1.77-0.85,1.97c-0.97,0.4-1.96,1.02-3.18-0.25
		c-6.15-6.36-12.47-12.56-18.72-18.82c-0.31-0.31-0.57-0.66-0.96-1.12c2.99-2.98,5.93-5.92,8.88-8.85c3.13-3.13,6.28-6.24,9.38-9.4
		c0.68-0.7,1.17-0.91,2.1-0.31c0.94,0.61,2.11,0.87,3.31,1.33c0.02,0.38,0.08,0.88,0.08,1.37
		C634.4,339.56,634.41,350.92,634.36,362.28z M632.93,312.07c-1.75,0.73-2.85,0.51-4.24-0.9c-12.72-12.86-25.54-25.63-38.33-38.43
		c-0.27-0.27-0.53-0.56-0.87-0.91c1.73-2.65,2.25-5.43,0.82-8.44c-0.17-0.36,0.15-1.19,0.5-1.55c6.31-6.35,12.66-12.67,19.23-19.21
		c7.79,7.87,15.52,15.62,23.17,23.45c0.63,0.65,1.14,1.75,1.14,2.65c0.07,13.86,0.04,27.73,0.08,41.59
		C634.42,311.47,633.87,311.67,632.93,312.07z M685.28,369.47c-16.56,16.58-33.22,33.25-49.97,50.01c-0.02-0.39-0.06-0.8-0.06-1.21
		c-0.01-14.57,0-29.14-0.03-43.7c0-1.03,0.12-1.77,1.22-2.28c1.61-0.74,2.1-2.28,2.25-3.96c0.05-0.59,0.16-1.33,0.54-1.71
		c7.14-7.25,14.32-14.45,21.51-21.68C669.17,353.36,677.33,361.53,685.28,369.47z M635.32,268.69c8.21,8.18,16.33,16.28,24.48,24.41
		c-6.73,6.72-13.48,13.47-20.15,20.13c-1.09-0.39-2.36-0.67-3.41-1.3c-0.53-0.32-0.93-1.28-0.94-1.95
		c-0.06-7.63-0.04-15.26-0.04-22.9c0-5.64-0.01-11.29-0.01-16.93C635.25,269.66,635.3,269.17,635.32,268.69z M635.25,326.98
		c1.73-0.84,3.36-1.63,5.48-2.66c0.4,0.48,1,1.3,1.71,2.02c5.51,5.54,11.03,11.08,16.59,16.58c0.84,0.83,1.06,1.39,0.11,2.33
		c-6.6,6.53-13.15,13.1-19.72,19.65c-0.4,0.4-0.86,0.74-1.21,1.03c-2.44-0.92-3.06-2.57-3.03-5.04
		C635.33,349.56,635.25,338.21,635.25,326.98z"/>
	<path class="st0" d="M602.8,31.33c12.87,12.87,25.75,25.74,38.62,38.61c6.33,6.33,12.67,12.67,19,19c0.18-0.12,0.37-0.24,0.55-0.36
		c-0.34-0.54-0.59-1.16-1.02-1.59c-20.16-20.19-40.34-40.37-60.51-60.54c-0.32-0.32-0.65-0.62-0.97-0.93
		c-0.18,0.09-0.35,0.18-0.53,0.28c0.21,0.44,0.34,0.97,0.66,1.31C599.97,28.55,601.4,29.93,602.8,31.33z"/>
</g>
</svg>
