<?xml version="1.0" encoding="utf-8"?>
<!-- Generator: Adobe Illustrator 26.4.1, SVG Export Plug-In . SVG Version: 6.00 Build 0)  -->
<svg version="1.1" id="Слой_1" xmlns="http://www.w3.org/2000/svg" xmlns:xlink="http://www.w3.org/1999/xlink" x="0px" y="0px"
	 viewBox="0 0 841.89 595.28" style="enable-background:new 0 0 841.89 595.28;" xml:space="preserve">
<style type="text/css">
	.st0{fill:#9D9D9C;}
</style>
<g>
	<path class="st0" d="M180.18,140.64c3.85-1.77,6.49-4.49,7.94-8.34c0.14-0.37,0.24-0.77,0.38-1.14c0.38-0.99,1.13-1.68,2.09-1.11
		c0.53,0.32,1.03,1.44,0.88,2.04c-0.92,3.75-3.09,6.74-6.09,9.14c-0.49,0.39-0.99,0.83-1.56,1.06c-1.67,0.67-2.43,1.76-2.72,3.63
		c-0.44,2.77-3.08,4.63-6.04,4.69c-2.64,0.05-5.29,0-7.93,0.02c-0.58,0-1.16,0.13-1.73,0.6c0.4,0.04,0.8,0.11,1.21,0.11
		c3.56,0.01,7.13-0.06,10.69,0.03c1.45,0.03,2.5-0.46,3.49-1.47c3.99-4.06,8.05-8.05,12.06-12.09c2.13-2.15,4.55-2.72,7.39-1.6
		c0.44,0.17,1.09,0.08,1.55-0.11c3.99-1.61,7.92,0.52,8.75,4.74c0.12,0.63,0.5,1.25,0.87,1.8c1.67,2.47,1.63,5.42-0.32,7.65
		c-1.4,1.6-2.96,3.05-4.47,4.55c-0.7,0.69-1.51,0.91-2.29,0.16c-0.82-0.79-0.68-1.65,0.07-2.43c1.12-1.16,2.27-2.28,3.41-3.42
		c1.87-1.88,2.11-3.52,0.74-4.93c-1.34-1.37-3.17-1.14-4.95,0.62c-3.91,3.9-7.85,7.77-11.69,11.72c-1.72,1.77-3.68,2.57-6.14,2.54
		c-6.15-0.07-12.3-0.05-18.45-0.01c-2.23,0.02-4.23-0.48-5.14-2.67c-0.98-2.35-1.13-4.82,0.37-7.09c0.97-1.47,2.49-1.95,4.19-1.96
		c2.59-0.01,5.17,0.02,7.76-0.01c2.38-0.03,3.65-1.08,3.67-2.95c0.02-1.96-1.3-3.06-3.73-3.06c-9.02-0.01-18.05,0-27.21,0
		c-0.05,0.51-0.14,0.94-0.14,1.38c-0.01,5.63,0.02,11.27-0.03,16.9c-0.01,1.01,0.29,1.47,1.23,1.9c5.74,2.63,11.71,3.83,18.06,3.65
		c7.01-0.2,14.03-0.1,21.04-0.02c3.08,0.04,5.6-0.9,7.65-3.21c1.18-1.33,2.51-2.53,3.76-3.8c0.77-0.78,1.63-1.18,2.55-0.3
		c0.93,0.9,0.52,1.76-0.26,2.54c-1.71,1.7-3.39,3.45-5.16,5.09c-2.02,1.87-4.43,2.79-7.21,2.78c-8.28-0.03-16.56-0.08-24.84,0.02
		c-4.91,0.06-9.59-0.8-14.08-2.74c-0.83-0.36-1.7-0.65-2.57-0.98c-0.52,3.03-1.27,3.66-4.24,3.66c-4.48,0-8.97,0.01-13.45,0
		c-2.52-0.01-3.56-1.04-3.56-3.55c-0.01-9.49-0.01-18.97,0-28.46c0-2.4,1.05-3.46,3.45-3.47c4.48-0.02,8.97-0.01,13.45,0
		c3.34,0,4.15,0.81,4.19,4.14c0,0.34,0.03,0.68,0.05,1.17c4.3,0,8.57,0,12.97,0c-0.12-0.27-0.22-0.57-0.39-0.82
		c-7.64-11.73-0.4-26.59,13.58-27.87c8.33-0.77,16.92,5.65,18.54,13.85c0.22,1.11,0.21,2.2-1.1,2.49c-1.32,0.3-1.72-0.66-2.03-1.78
		c-1.92-7.06-7.37-11.34-14.38-11.33c-6.58,0.01-12.22,4.27-13.98,10.7c-1.41,5.17-0.21,9.79,3.34,13.75
		c0.56,0.62,1.63,1.05,2.48,1.09c2.7,0.14,5.4,0.11,8.1,0.03C176.58,138.1,178.57,138.7,180.18,140.64z M143.81,164.94
		c0-9.73,0-19.29,0-28.89c-4.95,0-9.79,0-14.62,0c0,9.69,0,19.25,0,28.89C134.08,164.94,138.87,164.94,143.81,164.94z
		 M206.83,140.01c-1.94-1.69-3.27-1.67-4.89-0.06c-4.04,4-8.08,8-12.05,12.07c-1.67,1.71-3.55,2.54-5.96,2.5
		c-5.74-0.09-11.48-0.03-17.22-0.03c-0.58,0-1.15,0-1.73,0c-0.03,0.26-0.07,0.52-0.1,0.79c0.79,0.2,1.58,0.56,2.37,0.57
		c6.2,0.05,12.4-0.01,18.6,0.05c1.57,0.02,2.72-0.5,3.8-1.6c3.7-3.77,7.49-7.46,11.18-11.23
		C202.43,141.41,204.13,140.06,206.83,140.01z M198.11,139.03c-1.42-0.44-2.32,0.32-3.18,1.17c-2.84,2.83-5.66,5.69-8.52,8.5
		c-0.8,0.79-1.73,1.45-2.6,2.17c0.16,0.22,0.32,0.43,0.48,0.65c0.81-0.32,1.83-0.43,2.4-0.99
		C190.53,146.78,194.28,142.92,198.11,139.03z"/>
	<path class="st0" d="M133.45,84.5c-0.67-0.59-1.59-1.29-2.38-2.12c-1.27-1.34-1.28-2.61-0.03-3.95c1.17-1.26,2.4-2.48,3.65-3.66
		c1.39-1.31,2.67-1.29,4.11-0.01c0.56,0.5,1,1.15,1.61,1.54c0.48,0.31,1.15,0.5,1.71,0.45c0.89-0.08,1.1-0.77,1.04-1.63
		c-0.38-5.2,1.42-5.26,5.22-5.12c0.17,0.01,0.34,0,0.52,0c4.72,0,5,0.31,5.15,5.08c0.02,0.58,0.51,1.25,0.97,1.68
		c0.77,0.72,1.3,0.02,1.84-0.51c3.39-3.32,3.79-3.31,7.17,0.07c0.08,0.08,0.17,0.16,0.25,0.24c3.68,3.68,3.66,3.73,0.16,7.57
		c-0.34,0.38-0.52,1.25-0.32,1.69c0.2,0.46,0.97,0.98,1.46,0.95c5.08-0.32,5.41,1.17,5.22,5.5c-0.01,0.17,0,0.34,0,0.52
		c0,4.45-0.43,4.89-4.93,4.92c-0.83,0.01-1.75-0.05-1.81,1.02c-0.04,0.6,0.2,1.39,0.61,1.82c3.19,3.34,3.21,3.8-0.08,7.1
		c-0.04,0.04-0.08,0.08-0.12,0.12c-3.79,3.79-3.77,3.77-7.82,0.29c-0.39-0.33-1.26-0.41-1.75-0.21c-0.41,0.16-0.86,0.9-0.83,1.37
		c0.25,4.9-0.86,5.44-5.48,5.22c-0.17-0.01-0.34,0-0.52,0c-4.54,0-4.88-0.33-4.88-4.9c0-0.85,0.05-1.74-1.04-1.8
		c-0.62-0.03-1.32,0.24-1.87,0.56c-0.53,0.31-0.9,0.88-1.36,1.31c-1.5,1.4-2.77,1.45-4.24,0.1c-1.22-1.13-2.4-2.32-3.53-3.54
		c-1.32-1.42-1.32-2.67-0.04-4.11c0.53-0.6,1.21-1.09,1.66-1.74c0.29-0.42,0.55-1.17,0.36-1.53c-0.25-0.47-0.97-1.04-1.45-1.01
		c-4.62,0.31-5.59-0.84-5.3-5.67c0.01-0.23,0-0.46,0-0.69c0-4.03,0.56-4.67,4.53-4.56C132.42,86.89,133.25,86.44,133.45,84.5z
		 M167.5,89.81c-3.46,0.7-5.84-0.03-6.91-3.68c-0.9-3.08,1.74-3.92,2.79-5.56c-0.99-1.11-1.98-2.2-2.95-3.29
		c-3.89,3.45-3.93,3.35-5.51,2.98c-3.74-0.87-4.75-3.35-4.02-6.88c-1.67,0-3.06,0-4.79,0c0.86,3.43-0.1,5.69-3.62,6.81
		c-3.07,0.98-3.9-1.74-5.81-2.88c-1.01,1.03-2.03,2.08-3.07,3.15c1.71,1.89,4,3.15,2.55,6.67c-1.44,3.49-4.08,2.6-6.51,2.85
		c0,1.56,0,2.92,0,4.41c2.57,0.15,5.11-0.47,6.54,2.98c1.45,3.5-0.96,4.76-2.48,6.53c1.08,1.11,2.07,2.12,3.14,3.22
		c1.82-1.57,3.07-3.96,6.57-2.53c3.48,1.43,2.72,4.02,2.94,6.52c1.53,0,2.93,0,4.43,0c0.08-2.66-0.44-5.14,3-6.56
		c3.51-1.45,4.69,1.17,6.4,2.47c1.15-1.11,2.17-2.09,3.26-3.14c-1.7-1.76-3.91-3.08-2.49-6.56c1.42-3.47,4.03-2.71,6.53-2.95
		C167.5,92.89,167.5,91.53,167.5,89.81z"/>
	<path class="st0" d="M201.92,93.42c-0.34,0.5-0.73,1.55-1.49,2.08c-2.33,1.63-2.81,3.68-1.94,6.24c0.47,1.36,0.09,2.51-1.02,3.37
		c-1.09,0.84-2.32,0.78-3.36-0.02c-2.35-1.81-4.6-1.77-6.94,0.01c-1.05,0.79-2.27,0.83-3.36,0c-1.13-0.86-1.44-2.01-1.03-3.38
		c0.08-0.27,0.05-0.58,0.15-0.85c0.76-2.06,0.18-3.64-1.61-4.87c-0.46-0.32-0.86-0.77-1.21-1.22c-1.34-1.7-0.67-4.27,1.44-4.43
		c3.47-0.25,5.53-1.68,6.81-4.95c0.77-1.97,3.82-1.96,4.57,0.02c1.26,3.32,3.39,4.77,6.83,4.9
		C201.06,90.37,201.74,91.56,201.92,93.42z M190.63,87.75c-0.98,4.01-3.6,5.55-7.52,5.57c3.54,2.19,4.2,5.1,2.89,8.83
		c3.16-2.71,6.18-2.36,9.35-0.1c-1.58-3.8-0.43-6.55,2.81-8.82C194.12,93.4,191.71,91.66,190.63,87.75z"/>
	<path class="st0" d="M176.05,62.35c2.02-0.08,2.82,0.74,3.19,1.9c0.57,1.78,1.74,2.53,3.54,2.56c1.26,0.02,2.44,0.56,2.55,1.84
		c0.08,0.93-0.31,2.25-0.97,2.82c-1.51,1.3-1.79,2.63-1.39,4.5c0.18,0.82-0.25,2.18-0.89,2.66c-0.63,0.49-2.11,0.59-2.79,0.17
		c-1.85-1.15-3.34-1.03-5.18,0.06c-2.04,1.21-4.15-0.32-3.66-2.64c0.46-2.15,0.09-3.67-1.65-5.07c-0.57-0.47-0.88-1.86-0.63-2.58
		c0.26-0.73,1.34-1.61,2.1-1.65c2.17-0.12,3.41-1.04,4.17-3.05C174.74,63.12,175.74,62.63,176.05,62.35z M181.43,69.85
		c-2.35-0.05-3.98-1.04-4.73-3.4c-0.68,2.39-2.3,3.32-4.61,3.4c1.73,2.05,1.73,2.05,1.93,5.62c1.82-1.58,3.68-1.39,5.57,0.07
		C179.26,72.24,179.26,72.24,181.43,69.85z"/>
	<path class="st0" d="M173.2,129.91c2.45-2.45,4.67-4.68,6.9-6.91c0.32-0.32,0.62-0.85,0.99-0.92c0.74-0.13,1.53-0.01,2.3,0.01
		c-0.02,0.72,0.27,1.72-0.1,2.11c-2.87,3.05-5.86,5.99-8.84,8.93c-0.72,0.71-1.56,0.71-2.29-0.02c-2.21-2.18-4.39-4.37-6.58-6.57
		c-0.7-0.71-0.86-1.51-0.1-2.27c0.81-0.81,1.66-0.65,2.41,0.12C169.64,126.19,171.38,128.01,173.2,129.91z"/>
	<path class="st0" d="M148.45,102.73c-5.16-0.07-9.45-3.77-10.31-8.9c-0.83-4.96,2.26-9.97,7.15-11.6c4.8-1.6,10.07,0.5,12.52,4.96
		c0.58,1.06,0.92,2.08-0.4,2.78c-1.28,0.68-1.85-0.3-2.4-1.22c-1.92-3.22-5.32-4.59-8.68-3.5c-3.1,1-5.24,4.02-5.11,7.2
		c0.15,3.55,2.62,6.44,6.21,7.01c2.98,0.47,5.4-0.65,7.17-3.1c0.27-0.37,0.38-0.95,0.73-1.14c0.66-0.36,1.44-0.52,2.17-0.76
		c0.19,0.74,0.75,1.62,0.53,2.2C156.65,100.3,152.59,102.79,148.45,102.73z"/>
	<path class="st0" d="M153.19,92.3c-0.04,2.51-2.12,4.53-4.65,4.52c-2.51-0.01-4.6-2.09-4.61-4.58c-0.01-2.51,2.27-4.74,4.75-4.66
		C151.15,87.67,153.23,89.84,153.19,92.3z M148.45,90.22c-0.61,1.02-1.24,1.6-1.18,2.11c0.05,0.48,0.94,1.31,1.26,1.23
		c0.56-0.14,1.29-0.83,1.36-1.37C149.96,91.74,149.19,91.17,148.45,90.22z"/>
</g>
</svg>
