<?xml version="1.0" encoding="utf-8"?>
<!-- Generator: Adobe Illustrator 26.4.1, SVG Export Plug-In . SVG Version: 6.00 Build 0)  -->
<svg version="1.1" id="Слой_1" xmlns="http://www.w3.org/2000/svg" xmlns:xlink="http://www.w3.org/1999/xlink" x="0px" y="0px"
	 viewBox="0 0 841.89 595.28" style="enable-background:new 0 0 841.89 595.28;" xml:space="preserve">
<style type="text/css">
	.st0{fill:#9D9D9C;}
</style>
<g>
	<path class="st0" d="M370.31,162.08c-0.42,2.3-0.55,2.41-2.76,2.41c-4.72,0-9.43,0.01-14.15,0c-1.83,0-2.18-0.36-2.18-2.2
		c-0.01-10.79-0.01-21.58,0-32.37c0-1.77,0.42-2.18,2.22-2.18c4.66-0.01,9.33-0.01,13.99,0c2.35,0,2.54,0.17,2.85,2.64
		c2.19-1.42,4.01-3.03,4.76-5.56c1.94-6.47,3.87-12.95,5.79-19.43c0.6-2.02,0.93-2.25,2.99-2.06c4.66,0.44,8.38,4.53,8.32,9.65
		c-0.04,3.39-0.68,6.78-1.06,10.16c-0.05,0.42-0.1,0.85-0.18,1.45c0.66,0.03,1.23,0.08,1.79,0.08c6.07,0.01,12.15-0.04,18.22,0.02
		c4.4,0.04,7.51,3.76,6.27,7.62c-0.45,1.42-1.58,2.61-2.52,4.09c1.87,3.85,1.54,5.8-1.71,8.83c1.96,4.36,1.66,6.14-1.62,9.26
		c0.93,1.63,1.69,3.31,1.12,5.32c-0.78,2.74-3.08,4.66-5.93,4.67c-8.95,0.03-17.9,0.13-26.84-0.07c-2.37-0.05-4.71-1.11-7.06-1.71
		C371.86,162.5,371.09,162.29,370.31,162.08z M383.95,106.64c-0.16,0.44-0.33,0.88-0.47,1.33c-1.64,5.55-3.33,11.08-4.89,16.65
		c-1.17,4.2-3.71,7.12-7.64,8.93c-0.37,0.17-0.78,0.74-0.78,1.13c-0.05,7.7-0.04,15.4-0.01,23.1c0,0.38,0.32,1.01,0.61,1.09
		c3.17,0.88,6.35,2.26,9.57,2.39c8.61,0.33,17.24,0.13,25.86,0.1c2-0.01,3.32-1.3,3.28-3.04c-0.04-1.75-1.37-2.91-3.41-2.93
		c-1.79-0.02-3.58-0.03-5.37,0c-1.16,0.02-2.19-0.29-2.21-1.57c-0.02-1.28,1.01-1.64,2.17-1.63c2.39,0.01,4.77,0.03,7.16,0
		c1.89-0.02,3.22-1.24,3.26-2.91c0.05-1.71-1.33-3-3.3-3.03c-1.9-0.03-3.8,0-5.69-0.01c-1.1-0.01-2.01-0.41-2.01-1.63
		c0.01-1.23,0.93-1.57,2.04-1.56c2.33,0.02,4.67,0.07,6.99-0.03c0.82-0.03,1.93-0.22,2.35-0.77c0.61-0.79,1.04-2,0.97-2.99
		c-0.1-1.36-1.25-2.14-2.63-2.19c-2.11-0.08-4.23-0.02-6.34-0.07c-1.04-0.02-1.84-0.48-1.79-1.65c0.05-1.06,0.78-1.46,1.78-1.46
		c1.46,0,2.93,0,4.39,0c1.14,0,2.28,0.06,3.41-0.03c1.75-0.15,3.01-1.52,2.97-3.08c-0.04-1.51-1.26-2.76-2.94-2.96
		c-0.48-0.06-0.97-0.03-1.46-0.03c-6.72,0-13.45,0.01-20.17-0.01c-1.92,0-2.41-0.64-2.16-2.49c0.5-3.59,1.01-7.19,1.43-10.79
		C389.39,110.49,387.48,107.5,383.95,106.64z M354.52,131c0,10.17,0,20.17,0,30.22c4.15,0,8.22,0,12.29,0c0-10.14,0-20.13,0-30.22
		C362.69,131,358.66,131,354.52,131z"/>
	<path class="st0" d="M412.68,118.6c-1.71,0-3.17,0.02-4.63,0c-2.73-0.04-4.76-1.94-4.83-4.46c-0.07-2.66,1.84-4.68,4.69-4.75
		c3.58-0.08,7.16,0.01,10.74-0.05c2.67-0.04,4.21-2.22,3.13-4.31c-0.64-1.23-1.72-1.71-3.08-1.73c-1.68-0.03-3.39,0.07-5.02-0.22
		c-5.6-0.99-9.89-5.47-10.36-10.62c-0.53-5.9,2.57-10.78,8.22-12.95c0.35-0.13,0.69-0.28,1.14-0.47c0-1.39-0.01-2.8,0-4.2
		c0.02-1.81,0.37-2.17,2.22-2.19c1.74-0.02,3.47,0.02,5.21-0.01c1.42-0.02,2.11,0.6,2.06,2.05c-0.04,1.29-0.01,2.57-0.01,4.02
		c1.52,0,2.86-0.02,4.21,0c3.2,0.05,5.28,1.94,5.24,4.74c-0.03,2.69-2.16,4.54-5.25,4.54c-3.31,0.01-6.62-0.01-9.92,0
		c-2.28,0.01-3.69,1.15-3.72,2.98c-0.03,1.79,1.43,2.96,3.66,3.06c1.94,0.09,3.93,0.03,5.81,0.46c5.23,1.21,9.1,5.78,9.4,10.75
		c0.34,5.66-2.69,10.5-7.99,12.45c-1.23,0.45-1.56,1.04-1.45,2.22c0.1,0.97,0.01,1.95,0.02,2.93c0.02,1.19-0.58,1.86-1.74,1.89
		c-2.01,0.05-4.01,0.05-6.02,0c-1.17-0.03-1.75-0.71-1.73-1.9C412.69,121.5,412.68,120.16,412.68,118.6z M415.92,75.83
		c0,1.24-0.07,2.38,0.02,3.5c0.13,1.71-0.53,2.53-2.27,2.88c-4.08,0.83-7.06,4.52-7.15,8.56c-0.1,4.22,2.63,7.96,6.8,8.97
		c1.65,0.4,3.43,0.35,5.15,0.38c3.99,0.08,6.93,2.72,6.9,6.27c-0.03,3.49-2.92,6.06-6.84,6.08c-3.09,0.01-6.18-0.01-9.27,0.01
		c-1.15,0.01-2.68-0.3-2.74,1.45c-0.07,1.83,1.49,1.47,2.63,1.5c1.3,0.03,2.6,0.01,3.9,0.01c2.43,0.01,2.86,0.42,2.87,2.8
		c0,1.07,0,2.13,0,3.34c0.6,0,1.03,0,1.45,0c0.47,0,0.94,0,1.56,0c0-0.92,0-1.67,0-2.42c0-3.17,0-3.17,3.05-4.18
		c3.97-1.31,6.62-5.16,6.34-9.21c-0.29-4.15-3.44-7.68-7.61-8.33c-1.7-0.26-3.45-0.2-5.18-0.28c-2.66-0.12-4.93-1.81-5.74-4.29
		c-1.31-4,1.71-7.95,6.2-8.03c3.41-0.06,6.83-0.02,10.24-0.01c1.04,0,2.09-0.07,2.1-1.41c0.01-1.41-1.08-1.55-2.18-1.55
		c-1.63,0-3.25,0.01-4.88,0c-1.92-0.01-2.34-0.45-2.35-2.42c-0.01-1.18,0-2.35,0-3.61C417.9,75.83,417.05,75.83,415.92,75.83z"/>
	<path class="st0" d="M452.05,99.88c1.34,14.81-10.65,29.94-26.83,33.29c-0.11,0.02-0.21,0.03-0.32,0.05
		c-1.21,0.19-2.61,0.42-2.9-1.18c-0.28-1.54,1.11-1.71,2.23-1.99c12.63-3.14,21.1-10.77,23.91-23.59
		c3.57-16.28-6.5-31.66-22.9-35.82c-16.37-4.15-33.25,5.13-37.99,21.03c-0.73,2.46-0.93,5.09-1.25,7.66
		c-0.15,1.21-0.18,2.43-1.75,2.39c-1.63-0.04-1.54-1.33-1.52-2.51c0.25-14.47,10.6-27.35,25.27-31.43
		c17.41-4.85,35.74,4.05,42.22,20.44C451.78,92.12,452.44,96.13,452.05,99.88z"/>
	<path class="st0" d="M434.89,146.29c-0.11,1.34,0.09,2.87-1.71,2.88c-1.86,0.01-1.53-1.58-1.66-2.87
		c-1.26-0.17-3.08,0.15-3.06-1.73c0.02-1.83,1.77-1.47,3.07-1.59c0.17-1.24-0.27-2.95,1.68-2.93c1.81,0.02,1.58,1.56,1.67,2.85
		c1.18,0.31,3.08-0.22,3.02,1.78C437.84,146.4,436.23,146.17,434.89,146.29z"/>
	<path class="st0" d="M376.57,89.69c-0.08,1.35,0.05,2.85-1.74,2.85c-1.86-0.01-1.49-1.62-1.59-2.83c-1.29-0.27-3.14,0.18-3.08-1.82
		c0.06-1.79,1.72-1.39,2.95-1.55c0.37-1.14-0.24-3.04,1.88-2.92c1.79,0.1,1.41,1.72,1.64,2.9c1.19,0.23,2.96-0.27,2.9,1.71
		C379.48,89.83,377.85,89.48,376.57,89.69z"/>
</g>
</svg>
