<?xml version="1.0" encoding="utf-8"?>
<!-- Generator: Adobe Illustrator 26.4.1, SVG Export Plug-In . SVG Version: 6.00 Build 0)  -->
<svg version="1.1" id="Слой_1" xmlns="http://www.w3.org/2000/svg" xmlns:xlink="http://www.w3.org/1999/xlink" x="0px" y="0px"
	 viewBox="0 0 841.89 595.28" style="enable-background:new 0 0 841.89 595.28;" xml:space="preserve">
<style type="text/css">
	.st0{fill:#9D9D9C;}
</style>
<path class="st0" d="M310.63,142.19c0.65,1.15,1.21,2.18,1.8,3.18c0.63,1.05,1.33,2.21-0.12,3.01c-1.45,0.8-2.05-0.48-2.65-1.5
	c-0.34-0.57-0.68-1.14-1.12-1.88c-1.02,1.37-1.94,2.6-2.86,3.84c-2.95,4.02-5.58,4.82-10.29,3.12c-0.41-0.15-0.82-0.28-1.58-0.54
	c3.02,5.24,5.89,10.2,8.91,15.44c1.19-2.41,2.32-4.53,3.3-6.73c0.68-1.53,1.66-1.99,3.3-1.78c2.3,0.29,4.64,0.35,7.25,0.52
	c-0.98-1.69-1.81-3.18-2.68-4.64c-0.61-1.03-0.88-2.02,0.37-2.7c1.21-0.67,1.84,0.2,2.37,1.12c1.28,2.22,2.57,4.43,3.83,6.66
	c1.13,2.01,0.58,2.99-1.68,2.89c-2.62-0.11-5.24-0.25-7.84-0.54c-1.45-0.16-2.32,0.09-2.94,1.58c-0.95,2.31-2.12,4.54-3.33,6.73
	c-0.42,0.76-1.21,1.3-1.83,1.95c-0.65-0.62-1.47-1.14-1.91-1.89c-3.72-6.33-7.37-12.71-11.05-19.07c-1.31-2.26-2.31-2.28-3.59-0.06
	c-3.7,6.41-7.38,12.83-11.14,19.21c-0.43,0.73-1.25,1.58-1.98,1.67c-0.49,0.06-1.3-1.02-1.69-1.75c-1.29-2.4-2.48-4.85-3.63-7.32
	c-0.42-0.9-0.93-1.2-1.93-1.11c-2.83,0.26-5.67,0.46-8.51,0.59c-2.27,0.11-2.88-0.9-1.79-2.84c1.28-2.28,2.61-4.54,3.93-6.79
	c0.54-0.93,1.21-1.73,2.4-1.02c1.12,0.67,0.95,1.6,0.35,2.59c-0.88,1.47-1.71,2.96-2.72,4.74c2.63-0.17,4.99-0.24,7.33-0.52
	c1.57-0.19,2.51,0.27,3.16,1.74c0.99,2.22,2.13,4.36,3.33,6.77c3.13-5.42,6.13-10.62,9.28-16.07c-3.14,0.69-5.82,2.52-9.03,1.43
	c-3.25-1.11-4.37-4.12-6.38-6.66c-0.45,0.75-0.83,1.45-1.26,2.11c-0.56,0.84-1.34,1.26-2.28,0.67c-0.92-0.58-0.97-1.41-0.41-2.32
	c0.38-0.62,0.73-1.25,1.09-1.88c1.03-1.78,0.87-2.44-1.06-3.27c-1.53-0.65-3.14-1.13-4.71-1.68c-1.21-0.42-2.43-0.79-3.63-1.24
	c-3.13-1.18-4.88-3.71-4.87-7.06c0.01-2.56,0.19-5.14,0.05-7.69c-0.07-1.26-0.48-2.62-1.13-3.7c-1.31-2.19-2.91-4.21-4.35-6.33
	c-2-2.96-1.94-5.78,0.18-8.67c1.45-1.98,3.08-3.84,4.37-5.91c0.76-1.21,1.29-2.7,1.43-4.12c0.24-2.37,0.08-4.79,0.12-7.19
	c0.06-3.58,1.94-6.13,5.35-7.23c2.28-0.73,4.56-1.46,6.86-2.09c1.64-0.45,2.88-1.31,3.83-2.74c1.26-1.9,2.68-3.7,3.99-5.57
	c2.19-3.12,4.72-3.74,8.69-2.76c2.47,0.61,4.8,1.78,7.27,2.44c1.21,0.33,2.64,0.34,3.86,0.03c2.37-0.6,4.64-1.54,6.97-2.31
	c3.33-1.11,6.65-0.03,8.68,2.86c1.41,2,2.79,4.03,4.12,6.09c0.85,1.33,1.93,2.21,3.47,2.68c2.34,0.71,4.64,1.55,6.95,2.37
	c3.42,1.22,5.18,3.74,5.16,7.36c-0.01,2.56-0.18,5.13-0.06,7.69c0.06,1.15,0.45,2.41,1.06,3.39c1.37,2.23,2.98,4.3,4.45,6.47
	c1.95,2.88,1.91,5.72-0.12,8.54c-1.43,1.99-2.9,3.95-4.43,5.87c-1.06,1.33-1.58,2.75-1.54,4.46c0.06,2.28-0.01,4.57-0.04,6.86
	c-0.05,3.77-1.95,6.31-5.55,7.43c-2.44,0.76-4.89,1.5-7.33,2.28C311.87,141.59,311.29,141.9,310.63,142.19z M253.41,125.86
	c0,2.02,0,3.42,0,4.81c0.01,2.5,0.8,3.62,3.19,4.46c2.26,0.79,4.51,1.6,6.79,2.31c2.06,0.64,3.65,1.81,4.82,3.63
	c1.32,2.06,2.71,4.08,4.08,6.11c1.46,2.15,2.96,2.66,5.45,1.83c2.27-0.76,4.53-1.53,6.77-2.35c1.97-0.72,3.91-0.7,5.87,0.04
	c2.24,0.84,4.49,1.64,6.75,2.44c2.58,0.91,4.04,0.47,5.66-1.71c1.59-2.15,3.05-4.41,4.8-6.42c0.94-1.07,2.26-1.98,3.6-2.5
	c2.58-1.01,5.3-1.66,7.94-2.53c2.1-0.69,2.94-1.89,3-4.09c0.07-2.67-0.06-5.37,0.25-8.02c0.19-1.64,0.81-3.34,1.66-4.76
	c1.29-2.13,2.97-4.03,4.46-6.04c1.61-2.18,1.62-3.57,0.09-5.78c-1.46-2.1-3.1-4.1-4.36-6.32c-0.79-1.39-1.29-3.07-1.42-4.67
	c-0.21-2.6-0.01-5.23,0-7.85c0.01-2.52-0.78-3.66-3.15-4.49c-2.31-0.81-4.62-1.62-6.95-2.36c-2-0.64-3.53-1.79-4.67-3.56
	c-1.36-2.1-2.78-4.17-4.21-6.23c-1.39-1.99-2.88-2.48-5.21-1.72c-2.32,0.76-4.64,1.55-6.95,2.36c-1.97,0.69-3.91,0.67-5.87-0.07
	c-2.29-0.86-4.61-1.65-6.92-2.45c-2.5-0.87-3.97-0.43-5.53,1.69c-1.42,1.93-2.85,3.85-4.19,5.84c-1.18,1.76-2.8,2.82-4.79,3.41
	c-2.4,0.71-4.8,1.43-7.18,2.19c-2.17,0.69-3.06,1.92-3.12,4.18c-0.06,2.56-0.16,5.13-0.16,7.69c0,1.98-0.59,3.69-1.81,5.25
	c-1.44,1.84-2.82,3.73-4.22,5.6c-1.82,2.43-1.85,3.71-0.14,6.17c0.67,0.96,1.26,1.98,2.02,2.87
	C252.63,118.21,254.38,121.92,253.41,125.86z"/>
<path class="st0" d="M260.03,98.4c2.54,0,4.93,0,7.32,0c2.94,0,3.13,0.19,3.19,3.09c0,0.22,0.03,0.44,0.07,1.07
	c3.15-2.36,6.21-4.46,9.01-6.85c1.92-1.63,2.38-4.05,2.34-6.55c-0.04-3.09,2.31-5.06,5.36-4.62c1.94,0.28,3.05,1.48,3.58,3.29
	c1.33,4.5,1.77,9.06,0.5,13.83c4.23,0,8.29,0.05,12.35-0.02c2.2-0.04,3.97,0.57,5,2.6c1.04,2.04,0.78,3.96-0.66,5.76
	c-0.24,0.3-0.28,0.9-0.17,1.29c0.7,2.49,0.43,3.72-1.45,5.89c1.05,2.34,0.93,4.56-0.95,6.55c-0.2,0.21-0.09,0.81,0.03,1.18
	c0.89,2.97-0.72,5.82-3.77,6.5c-0.7,0.16-1.44,0.18-2.16,0.18c-6.3,0-12.6,0.07-18.9-0.08c-1.48-0.03-2.94-0.76-4.41-1.18
	c-1.83-0.53-3.66-1.06-5.51-1.6c-0.28,1.89-0.5,3.36-0.76,5.12c5.84,4.37,12.78,6.57,20.46,5.88c13.78-1.25,24.73-11.1,27.33-24.71
	c1.89-9.89-0.82-18.62-7.56-26.1c-0.81-0.9-2.22-1.7-0.98-3.2c0.78-0.94,1.83-0.63,3.3,1.03c8.6,9.79,11.4,21,7.12,33.37
	c-4.27,12.34-13.15,20.03-26.05,22.33c-18.48,3.3-36.05-9.81-38.73-28.49c-2.94-20.46,14.83-39.37,35.46-37.79
	c5.38,0.41,10.36,1.95,14.98,4.72c0.86,0.52,1.61,1.11,1.22,2.26c-0.36,1.07-1.44,1.26-2.77,0.48c-5.17-3.04-10.75-4.73-16.74-4.33
	c-12.25,0.82-21.15,6.82-26.6,17.87C260.3,97.5,260.21,97.87,260.03,98.4z M270.53,125.12c2.95,1.07,5.52,2.04,8.12,2.92
	c0.72,0.25,1.51,0.36,2.27,0.37c6.19,0.03,12.37,0.02,18.56,0.03c1.35,0,2.83,0.13,3.16-1.67c0.22-1.22-0.71-1.77-3.06-1.9
	c-1.08-0.06-1.92-0.43-1.88-1.63c0.05-1.2,0.91-1.54,1.99-1.51c0.72,0.02,1.45,0.01,2.17,0c1.21-0.01,2.13-0.49,2.13-1.81
	c0-1.26-0.9-1.68-2.04-1.7c-0.5-0.01-1.12,0.17-1.48-0.06c-0.66-0.43-1.16-1.09-1.72-1.66c0.59-0.48,1.1-1.2,1.77-1.39
	c0.88-0.24,1.88-0.01,2.82-0.09c1.08-0.09,1.94-0.74,1.66-1.83c-0.17-0.66-1-1.37-1.7-1.62c-0.79-0.28-1.76-0.08-2.65-0.09
	c-1.1-0.01-2.03-0.53-1.82-1.63c0.12-0.6,1.12-1.3,1.82-1.44c1.24-0.24,2.55-0.02,3.83-0.09c1.09-0.06,1.94-0.76,1.7-1.81
	c-0.15-0.66-1.06-1.2-1.73-1.65c-0.31-0.21-0.87-0.05-1.31-0.05c-4.4-0.01-8.81,0-13.21-0.03c-2.18-0.02-2.71-0.77-2-2.83
	c1.53-4.39,1.22-8.77-0.11-13.12c-0.16-0.53-0.95-0.86-1.45-1.28c-0.43,0.55-1.08,1.05-1.23,1.67c-0.3,1.23-0.19,2.56-0.49,3.79
	c-0.87,3.67-3.52,5.95-6.44,8c-2.27,1.6-4.53,3.22-6.75,4.9c-0.44,0.33-0.92,0.96-0.93,1.45
	C270.51,113.42,270.53,119.49,270.53,125.12z M267.2,130.64c0-9.92,0-19.39,0-28.93c-2.83,0-5.54,0-8.28,0
	c-0.12,0.35-0.28,0.65-0.34,0.97c-0.23,1.31-0.52,2.62-0.63,3.95c-0.73,8.69,1.73,16.37,7.48,22.94
	C265.81,130,266.44,130.19,267.2,130.64z"/>
</svg>
