<?xml version="1.0" encoding="UTF-8"?>
<svg id="_Слой_1" data-name="Слой 1" xmlns="http://www.w3.org/2000/svg" viewBox="0 0 55.23 55.21">
  <defs>
    <style>
      .cls-1 {
        fill: #9d9d9c;
      }
    </style>
  </defs>
  <path class="cls-1" d="M0,27.57C.12,12.3,12.33-.03,27.69,0c15.24,.03,27.61,12.3,27.54,27.75-.07,15.17-12.28,27.52-27.72,27.46C12.31,55.16,.09,42.93,0,27.57Zm2.4,.04c-.03,14.04,11.22,24.7,24,25.22,15.35,.62,25.97-11.49,26.45-24.01,.59-15.31-11.48-25.93-24.04-26.44C13.67,1.77,2.25,14.01,2.4,27.6Z"/>
  <path class="cls-1" d="M21.21,33.18c-1.22,.59-2.46,.93-3.74,.8-1.04-.11-2.06-.39-3.07-.68-1.3-.38-2.62-.77-3.87-1.3-2.72-1.14-2.82-4.52-.4-6,1.1-.67,2.31-1.18,3.5-1.69,2.97-1.29,5.96-2.54,8.94-3.8,4.32-1.81,8.64-3.63,12.97-5.41,1.05-.43,2.16-.66,3.33-.63,2,.05,3.7,1.66,3.65,3.66-.03,1.28-.22,2.56-.37,3.84-.15,1.28-.33,2.55-.52,3.82-.2,1.4-.41,2.8-.63,4.2-.21,1.36-.42,2.73-.68,4.09-.42,2.24-.6,4.54-1.5,6.67-.59,1.41-1.45,2.57-3.1,2.8-1.13,.16-2.23-.08-3.2-.62-1.25-.69-2.43-1.52-3.63-2.3-1.79-1.17-3.55-2.38-5.34-3.55-1.41-.91-2.28-2.13-2.36-3.92Zm-3.5-1.43s.02-.09,.04-.14c.95,.05,1.84-.18,2.63-.71,3.75-2.52,7.49-5.05,11.23-7.58,.23-.16,.46-.33,.72-.42,.13-.05,.38,.01,.47,.11,.09,.1,.12,.35,.06,.48-.07,.19-.23,.36-.39,.51-2.75,2.69-5.51,5.38-8.27,8.08-.74,.73-.8,1.46-.18,2.3,.19,.26,.47,.46,.73,.64,2.22,1.5,4.46,3,6.69,4.49,.98,.66,1.9,1.41,3.1,1.67,.89,.19,1.48-.04,1.88-.86,.23-.49,.47-.99,.6-1.51,.29-1.25,.53-2.51,.76-3.77,.27-1.52,.51-3.05,.75-4.58,.23-1.41,.45-2.83,.66-4.24,.19-1.27,.36-2.54,.54-3.82,.16-1.16,.31-2.32,.48-3.48,.12-.83-.16-1.93-1.31-2.09-.84-.12-1.62,.1-2.35,.41-4.07,1.67-8.14,3.37-12.2,5.08-3.4,1.42-6.79,2.86-10.18,4.3-.91,.39-1.8,.8-2.66,1.29-.31,.17-.59,.56-.69,.9-.15,.54,.15,.91,.89,1.16,1.07,.37,2.15,.7,3.23,1.02,.91,.27,1.83,.5,2.75,.74Z"/>
</svg>