<?xml version="1.0" encoding="UTF-8"?>
<svg id="_Слой_1" data-name="Слой 1" xmlns="http://www.w3.org/2000/svg" viewBox="0 0 55.44 60.75">
  <defs>
    <style>
      .cls-1 {
        fill: #9d9d9c;
      }
    </style>
  </defs>
  <path class="cls-1" d="M13.2,60.75c0-.3,0-.53,0-.77,0-3.19,0-6.38,.01-9.57,0-.49-.12-.77-.6-.93-.88-.3-1.75-.64-2.61-.98-2.83-1.11-4.89-3.11-6.46-5.66-1.58-2.58-2.34-5.43-2.88-8.37C.18,31.88-.08,29.26,.02,26.64c.1-2.42,.34-4.84,.65-7.24,.24-1.91,.55-3.83,1.04-5.69,1.15-4.34,3.91-7.49,7.73-9.72,2.92-1.7,6.11-2.65,9.43-3.22C22,.24,25.15-.1,28.32,.03c2.35,.09,4.7,.39,7.04,.63,2.49,.26,4.92,.78,7.29,1.58,2.6,.89,5,2.15,7.01,4.06,2.37,2.26,3.78,5.09,4.45,8.26,.46,2.23,.81,4.49,1.06,6.75,.21,1.85,.31,3.72,.26,5.58-.14,4.71-.61,9.36-2.41,13.82-1.85,4.57-5.13,7.51-9.77,8.91-1.96,.59-4.01,.93-6.04,1.2-2.06,.27-4.14,.31-6.22,.42-1.97,.11-3.95,.17-5.92,.28-.24,.01-.52,.2-.7,.38-1.61,1.63-3.18,3.28-4.8,4.9-1.26,1.26-2.56,2.48-3.84,3.71-.12,.11-.29,.22-.44,.22-.68,.02-1.35,.01-2.09,.01Zm2.64-4.12c.06,.03,.13,.06,.19,.08,2.12-2.17,4.26-4.32,6.34-6.52,.77-.81,1.65-1.27,2.74-1.32,3.77-.18,7.54-.27,11.3-.57,1.95-.15,3.92-.53,5.81-1.06,4.08-1.14,6.95-3.66,8.5-7.71,1.35-3.53,1.92-7.18,2.07-10.9,.17-4.31-.12-8.59-1.01-12.84-1.11-5.29-4.06-8.88-9.11-10.79-4.2-1.59-8.61-2.1-13.04-2.34-3.39-.18-6.77,0-10.13,.61-2.79,.51-5.49,1.24-8.02,2.53-3.62,1.85-6.34,4.57-7.29,8.59-.69,2.91-1.11,5.89-1.38,8.87-.22,2.39-.08,4.82-.04,7.23,.04,2.38,.54,4.71,1.21,6.98,.96,3.26,2.57,6.13,5.6,7.92,1.11,.65,2.4,.98,3.59,1.49,.94,.4,1.94,.77,2.33,1.84,.18,.5,.31,1.05,.32,1.58,.04,2.1,.01,4.21,.01,6.31Z"/>
  <path class="cls-1" d="M36.19,43.73c-1.03-.39-2.07-.73-3.07-1.18-3.53-1.58-6.82-3.58-9.82-6.02-3.55-2.88-6.47-6.32-8.88-10.2-1.52-2.45-2.62-5.1-3.59-7.8-.69-1.9,.26-4.26,1.85-5.3,.91-.59,1.97-1,3.02-1.31,.77-.23,1.5,.21,2.07,.75,1.93,1.81,3.44,3.94,4.56,6.34,.51,1.09,.15,2.1-.95,2.94-.46,.36-.92,.74-1.3,1.18-.69,.78-.79,1.68-.42,2.67,1.18,3.17,3.26,5.59,6.14,7.33,.76,.46,1.56,.87,2.36,1.24,1.52,.71,2.5,.1,3.27-.97,.52-.73,1.1-1.32,1.98-1.6,1.01-.32,1.95-.03,2.74,.5,1.71,1.13,3.37,2.34,4.97,3.61,1.26,1,1.43,2.01,.75,3.48-1.05,2.27-2.85,3.62-5.27,4.16-.11,.02-.22,.01-.33,.02-.02,.05-.04,.1-.06,.15Z"/>
  <path class="cls-1" d="M29.03,11.82c-.61,.09-1.41,.19-2.2,.32-.86,.15-1.57-.25-1.73-1-.16-.73,.26-1.32,1.16-1.52,4.23-.93,8.09-.03,11.54,2.52,2.94,2.18,4.76,5.13,5.46,8.71,.38,1.92,.33,3.87-.09,5.79-.14,.63-.81,1.15-1.37,1.08-.72-.08-1.18-.61-1.13-1.42,.06-.96,.26-1.91,.25-2.86-.04-5.58-3.92-10.3-9.53-11.41-.7-.14-1.43-.14-2.35-.22Z"/>
  <path class="cls-1" d="M29.21,15.8c-.45,.06-.91,.11-1.36,.17-.63,.09-1.35-.43-1.44-1.06-.12-.81,.38-1.46,1.21-1.57,3.73-.48,6.9,.66,9.41,3.45,1.42,1.58,2.31,3.47,2.45,5.63,.06,.91,.04,1.83,0,2.74-.05,.85-.77,1.39-1.58,1.25-.71-.12-1.07-.84-.97-1.65,.27-2.16-.15-4.18-1.53-5.91-1.57-1.97-3.62-3.02-6.18-3.05Z"/>
  <path class="cls-1" d="M35.65,23.6c0,.88-.53,1.48-1.31,1.49-.78,0-1.34-.59-1.33-1.47,.03-1.83-1.68-3.83-3.8-3.82-.85,0-1.49-.59-1.49-1.32,0-.73,.69-1.36,1.5-1.31,3.63,.25,6.17,2.83,6.42,6.43Z"/>
</svg>