<?xml version="1.0" encoding="UTF-8"?>
<svg id="_Слой_1" data-name="Слой 1" xmlns="http://www.w3.org/2000/svg" viewBox="0 0 53.12 53.17">
  <defs>
    <style>
      .cls-1 {
        fill: #9d9d9c;
      }
    </style>
  </defs>
  <path class="cls-1" d="M12.67,49.93c.37-.09,.96-.12,1.4,.1,3.33,1.72,6.58,2.69,9.92,2.97,2.77,.23,5.24,.12,7.55-.33,4.21-.82,8.06-2.59,11.45-5.26,3.61-2.84,6.35-6.47,8.15-10.79,1.88-4.53,2.43-9.39,1.62-14.45-.78-4.87-2.88-9.29-6.23-13.12-2.64-3.03-5.87-5.37-9.58-6.96-3.27-1.4-6.74-2.1-10.36-2.1-.99,0-1.99,.05-3,.16-3.15,.33-6.24,1.28-9.19,2.81C9.2,5.68,5.25,9.73,2.66,15.01,.55,19.29-.31,23.95,.1,28.87c.32,3.77,1.39,7.27,3.28,10.7,.22,.39,.29,.97,.18,1.4-.53,2.04-1.1,4.11-1.65,6.1l-.43,1.55c-.31,1.13-.62,2.26-.94,3.42l-.31,1.13,2.19-.57c3.46-.9,6.85-1.79,10.26-2.66ZM2.53,29.54c-.56-4.58,.12-8.95,2-12.98C7.61,9.97,12.64,5.57,19.47,3.45c6.4-1.98,12.6-1.4,18.43,1.73,6.68,3.59,10.83,9.16,12.36,16.56,.24,1.16,.36,2.35,.45,3.22,.03,.32,.06,.61,.09,.83v.02s0,.02,0,.02c-.15,7.83-2.83,13.99-8.18,18.83-3.61,3.26-7.93,5.24-12.86,5.89-1.11,.15-2.21,.22-3.3,.22-4.28,0-8.37-1.13-12.2-3.38-.34-.2-.6-.24-.98-.13-1.88,.51-3.77,1-5.66,1.49l-1.79,.46c-.64,.17-1.12,.1-1.42-.21-.2-.2-.4-.61-.19-1.38l.67-2.47c.45-1.67,.91-3.34,1.35-5.02,.04-.14,0-.39-.09-.52-1.96-3.09-3.18-6.49-3.62-10.1Z"/>
  <path class="cls-1" d="M13.26,20.32c0-2.08,.88-3.75,2.3-5.19,.46-.46,1.02-.56,1.65-.54,1.37,.03,1.37,.01,1.88,1.25,.64,1.53,1.28,3.06,1.89,4.61,.08,.2,.06,.54-.07,.72-.52,.77-1.09,1.5-1.66,2.24-.57,.74-.61,1.37-.13,2.2,2.29,3.94,5.53,6.79,9.75,8.52,1.19,.49,1.84,.35,2.66-.63,.66-.79,1.31-1.58,1.92-2.41,.23-.3,.42-.33,.73-.18,1.74,.84,3.49,1.66,5.22,2.51,.17,.09,.35,.37,.35,.56-.02,1.59-.54,2.92-1.95,3.85-1.83,1.21-3.8,1.56-5.88,1.01-3.16-.83-6.14-2.1-8.76-4.1-2.71-2.06-4.98-4.54-6.96-7.3-1.16-1.63-2.22-3.32-2.69-5.29-.14-.6-.19-1.22-.27-1.83Z"/>
</svg>